<mxfile host="app.diagrams.net" modified="2023-11-27T00:22:42.787Z" agent="Mozilla/5.0 (Windows NT 10.0; Win64; x64) AppleWebKit/537.36 (KHTML, like Gecko) Chrome/119.0.0.0 Safari/537.36 Edg/119.0.0.0" etag="N7SsHetYd-HvOvmfMoOA" version="22.1.4" type="device" pages="6">
  <diagram name="Page-1" id="44VLVStLDnH92KR0Mm3X">
    <mxGraphModel dx="1173" dy="764" grid="1" gridSize="10" guides="1" tooltips="1" connect="1" arrows="1" fold="1" page="1" pageScale="1" pageWidth="850" pageHeight="1100" math="0" shadow="0">
      <root>
        <mxCell id="0" />
        <mxCell id="1" parent="0" />
        <mxCell id="nGCFhcfUZUpMhztRL9Pn-4" style="edgeStyle=orthogonalEdgeStyle;rounded=0;orthogonalLoop=1;jettySize=auto;html=1;entryX=0.5;entryY=0;entryDx=0;entryDy=0;" parent="1" source="nGCFhcfUZUpMhztRL9Pn-1" target="nGCFhcfUZUpMhztRL9Pn-3" edge="1">
          <mxGeometry relative="1" as="geometry" />
        </mxCell>
        <mxCell id="nGCFhcfUZUpMhztRL9Pn-1" value="Start" style="ellipse;whiteSpace=wrap;html=1;" parent="1" vertex="1">
          <mxGeometry x="130" y="100" width="120" height="80" as="geometry" />
        </mxCell>
        <mxCell id="nGCFhcfUZUpMhztRL9Pn-6" value="" style="edgeStyle=orthogonalEdgeStyle;rounded=0;orthogonalLoop=1;jettySize=auto;html=1;" parent="1" source="nGCFhcfUZUpMhztRL9Pn-3" target="nGCFhcfUZUpMhztRL9Pn-5" edge="1">
          <mxGeometry relative="1" as="geometry" />
        </mxCell>
        <mxCell id="nGCFhcfUZUpMhztRL9Pn-8" style="edgeStyle=orthogonalEdgeStyle;rounded=0;orthogonalLoop=1;jettySize=auto;html=1;" parent="1" source="nGCFhcfUZUpMhztRL9Pn-3" target="nGCFhcfUZUpMhztRL9Pn-7" edge="1">
          <mxGeometry relative="1" as="geometry" />
        </mxCell>
        <mxCell id="nGCFhcfUZUpMhztRL9Pn-3" value="3,5,7" style="rhombus;whiteSpace=wrap;html=1;" parent="1" vertex="1">
          <mxGeometry x="150" y="250" width="80" height="80" as="geometry" />
        </mxCell>
        <mxCell id="nGCFhcfUZUpMhztRL9Pn-10" value="" style="edgeStyle=orthogonalEdgeStyle;rounded=0;orthogonalLoop=1;jettySize=auto;html=1;" parent="1" source="nGCFhcfUZUpMhztRL9Pn-5" target="nGCFhcfUZUpMhztRL9Pn-9" edge="1">
          <mxGeometry relative="1" as="geometry" />
        </mxCell>
        <mxCell id="nGCFhcfUZUpMhztRL9Pn-15" style="edgeStyle=orthogonalEdgeStyle;rounded=0;orthogonalLoop=1;jettySize=auto;html=1;entryX=0;entryY=0.5;entryDx=0;entryDy=0;" parent="1" source="nGCFhcfUZUpMhztRL9Pn-5" target="nGCFhcfUZUpMhztRL9Pn-7" edge="1">
          <mxGeometry relative="1" as="geometry" />
        </mxCell>
        <mxCell id="nGCFhcfUZUpMhztRL9Pn-5" value="4+5=9&lt;br&gt;5-4=1" style="whiteSpace=wrap;html=1;" parent="1" vertex="1">
          <mxGeometry x="130" y="420" width="120" height="60" as="geometry" />
        </mxCell>
        <mxCell id="nGCFhcfUZUpMhztRL9Pn-7" value="End" style="ellipse;whiteSpace=wrap;html=1;" parent="1" vertex="1">
          <mxGeometry x="540" y="410" width="120" height="80" as="geometry" />
        </mxCell>
        <mxCell id="nGCFhcfUZUpMhztRL9Pn-12" value="" style="edgeStyle=orthogonalEdgeStyle;rounded=0;orthogonalLoop=1;jettySize=auto;html=1;" parent="1" source="nGCFhcfUZUpMhztRL9Pn-9" target="nGCFhcfUZUpMhztRL9Pn-11" edge="1">
          <mxGeometry relative="1" as="geometry" />
        </mxCell>
        <mxCell id="nGCFhcfUZUpMhztRL9Pn-14" style="edgeStyle=orthogonalEdgeStyle;rounded=0;orthogonalLoop=1;jettySize=auto;html=1;" parent="1" source="nGCFhcfUZUpMhztRL9Pn-9" edge="1">
          <mxGeometry relative="1" as="geometry">
            <mxPoint x="600" y="490" as="targetPoint" />
          </mxGeometry>
        </mxCell>
        <mxCell id="nGCFhcfUZUpMhztRL9Pn-9" value="5+1=6&lt;br&gt;5-1=4" style="whiteSpace=wrap;html=1;" parent="1" vertex="1">
          <mxGeometry x="130" y="560" width="120" height="60" as="geometry" />
        </mxCell>
        <mxCell id="nGCFhcfUZUpMhztRL9Pn-13" style="edgeStyle=orthogonalEdgeStyle;rounded=0;orthogonalLoop=1;jettySize=auto;html=1;entryX=0.5;entryY=1;entryDx=0;entryDy=0;" parent="1" source="nGCFhcfUZUpMhztRL9Pn-11" target="nGCFhcfUZUpMhztRL9Pn-7" edge="1">
          <mxGeometry relative="1" as="geometry" />
        </mxCell>
        <mxCell id="nGCFhcfUZUpMhztRL9Pn-11" value="4+1=5&lt;br&gt;4-1=3" style="whiteSpace=wrap;html=1;" parent="1" vertex="1">
          <mxGeometry x="130" y="700" width="120" height="60" as="geometry" />
        </mxCell>
      </root>
    </mxGraphModel>
  </diagram>
  <diagram id="3h5s2STlIgd7COAGGBCn" name="Page-2">
    <mxGraphModel dx="1173" dy="764" grid="1" gridSize="10" guides="1" tooltips="1" connect="1" arrows="1" fold="1" page="1" pageScale="1" pageWidth="850" pageHeight="1100" math="0" shadow="0">
      <root>
        <mxCell id="0" />
        <mxCell id="1" parent="0" />
        <mxCell id="-kCjMtDUiTzgslSM-M-m-1" value="Start" style="ellipse;whiteSpace=wrap;html=1;" vertex="1" parent="1">
          <mxGeometry x="100" y="100" width="120" height="80" as="geometry" />
        </mxCell>
        <mxCell id="Lr3IZsHB_qojvRefor-c-1" style="edgeStyle=orthogonalEdgeStyle;rounded=0;orthogonalLoop=1;jettySize=auto;html=1;entryX=0.5;entryY=0;entryDx=0;entryDy=0;" edge="1" parent="1" target="Lr3IZsHB_qojvRefor-c-4">
          <mxGeometry relative="1" as="geometry">
            <mxPoint x="160" y="180" as="sourcePoint" />
          </mxGeometry>
        </mxCell>
        <mxCell id="Lr3IZsHB_qojvRefor-c-2" value="" style="edgeStyle=orthogonalEdgeStyle;rounded=0;orthogonalLoop=1;jettySize=auto;html=1;" edge="1" parent="1" source="Lr3IZsHB_qojvRefor-c-4" target="Lr3IZsHB_qojvRefor-c-7">
          <mxGeometry relative="1" as="geometry" />
        </mxCell>
        <mxCell id="Lr3IZsHB_qojvRefor-c-3" style="edgeStyle=orthogonalEdgeStyle;rounded=0;orthogonalLoop=1;jettySize=auto;html=1;" edge="1" parent="1" source="Lr3IZsHB_qojvRefor-c-4" target="Lr3IZsHB_qojvRefor-c-8">
          <mxGeometry relative="1" as="geometry" />
        </mxCell>
        <mxCell id="Lr3IZsHB_qojvRefor-c-4" value="4,5,1" style="rhombus;whiteSpace=wrap;html=1;" vertex="1" parent="1">
          <mxGeometry x="120" y="250" width="80" height="80" as="geometry" />
        </mxCell>
        <mxCell id="Lr3IZsHB_qojvRefor-c-5" value="" style="edgeStyle=orthogonalEdgeStyle;rounded=0;orthogonalLoop=1;jettySize=auto;html=1;" edge="1" parent="1" source="Lr3IZsHB_qojvRefor-c-7" target="Lr3IZsHB_qojvRefor-c-11">
          <mxGeometry relative="1" as="geometry" />
        </mxCell>
        <mxCell id="Lr3IZsHB_qojvRefor-c-6" style="edgeStyle=orthogonalEdgeStyle;rounded=0;orthogonalLoop=1;jettySize=auto;html=1;entryX=0;entryY=0.5;entryDx=0;entryDy=0;" edge="1" parent="1" source="Lr3IZsHB_qojvRefor-c-7" target="Lr3IZsHB_qojvRefor-c-8">
          <mxGeometry relative="1" as="geometry" />
        </mxCell>
        <mxCell id="Lr3IZsHB_qojvRefor-c-7" value="4*5=20&lt;br&gt;5!%4" style="whiteSpace=wrap;html=1;" vertex="1" parent="1">
          <mxGeometry x="100" y="420" width="120" height="60" as="geometry" />
        </mxCell>
        <mxCell id="Lr3IZsHB_qojvRefor-c-8" value="End" style="ellipse;whiteSpace=wrap;html=1;" vertex="1" parent="1">
          <mxGeometry x="510" y="410" width="120" height="80" as="geometry" />
        </mxCell>
        <mxCell id="Lr3IZsHB_qojvRefor-c-9" value="" style="edgeStyle=orthogonalEdgeStyle;rounded=0;orthogonalLoop=1;jettySize=auto;html=1;" edge="1" parent="1" source="Lr3IZsHB_qojvRefor-c-11" target="Lr3IZsHB_qojvRefor-c-13">
          <mxGeometry relative="1" as="geometry" />
        </mxCell>
        <mxCell id="Lr3IZsHB_qojvRefor-c-10" style="edgeStyle=orthogonalEdgeStyle;rounded=0;orthogonalLoop=1;jettySize=auto;html=1;" edge="1" parent="1" source="Lr3IZsHB_qojvRefor-c-11">
          <mxGeometry relative="1" as="geometry">
            <mxPoint x="570" y="490" as="targetPoint" />
          </mxGeometry>
        </mxCell>
        <mxCell id="Lr3IZsHB_qojvRefor-c-11" value="5*1=5&lt;br&gt;5/1=5" style="whiteSpace=wrap;html=1;" vertex="1" parent="1">
          <mxGeometry x="100" y="560" width="120" height="60" as="geometry" />
        </mxCell>
        <mxCell id="Lr3IZsHB_qojvRefor-c-12" style="edgeStyle=orthogonalEdgeStyle;rounded=0;orthogonalLoop=1;jettySize=auto;html=1;entryX=0.5;entryY=1;entryDx=0;entryDy=0;" edge="1" parent="1" source="Lr3IZsHB_qojvRefor-c-13" target="Lr3IZsHB_qojvRefor-c-8">
          <mxGeometry relative="1" as="geometry" />
        </mxCell>
        <mxCell id="Lr3IZsHB_qojvRefor-c-13" value="4*1=4&lt;br&gt;4/1=4" style="whiteSpace=wrap;html=1;" vertex="1" parent="1">
          <mxGeometry x="100" y="700" width="120" height="60" as="geometry" />
        </mxCell>
      </root>
    </mxGraphModel>
  </diagram>
  <diagram id="uNZHV-7RqtoqMGAeiOJ-" name="Page-3">
    <mxGraphModel dx="1805" dy="1175" grid="1" gridSize="10" guides="1" tooltips="1" connect="1" arrows="1" fold="1" page="1" pageScale="1" pageWidth="850" pageHeight="1100" math="0" shadow="0">
      <root>
        <mxCell id="0" />
        <mxCell id="1" parent="0" />
        <mxCell id="bQtUnsKeXZVRETvur1ST-3" style="edgeStyle=orthogonalEdgeStyle;rounded=0;orthogonalLoop=1;jettySize=auto;html=1;entryX=0.5;entryY=0;entryDx=0;entryDy=0;" parent="1" source="bQtUnsKeXZVRETvur1ST-1" target="bQtUnsKeXZVRETvur1ST-2" edge="1">
          <mxGeometry relative="1" as="geometry" />
        </mxCell>
        <mxCell id="bQtUnsKeXZVRETvur1ST-1" value="Start" style="ellipse;whiteSpace=wrap;html=1;" parent="1" vertex="1">
          <mxGeometry x="110" y="10" width="120" height="80" as="geometry" />
        </mxCell>
        <mxCell id="bQtUnsKeXZVRETvur1ST-5" style="edgeStyle=orthogonalEdgeStyle;rounded=0;orthogonalLoop=1;jettySize=auto;html=1;" parent="1" source="bQtUnsKeXZVRETvur1ST-2" target="bQtUnsKeXZVRETvur1ST-4" edge="1">
          <mxGeometry relative="1" as="geometry" />
        </mxCell>
        <mxCell id="bQtUnsKeXZVRETvur1ST-7" value="" style="edgeStyle=orthogonalEdgeStyle;rounded=0;orthogonalLoop=1;jettySize=auto;html=1;" parent="1" source="bQtUnsKeXZVRETvur1ST-2" edge="1">
          <mxGeometry relative="1" as="geometry">
            <mxPoint x="330" y="310" as="targetPoint" />
          </mxGeometry>
        </mxCell>
        <mxCell id="bQtUnsKeXZVRETvur1ST-2" value="Array1" style="shape=parallelogram;perimeter=parallelogramPerimeter;whiteSpace=wrap;html=1;fixedSize=1;" parent="1" vertex="1">
          <mxGeometry x="110" y="280" width="120" height="60" as="geometry" />
        </mxCell>
        <mxCell id="HKo9quDZtJYabQAs-5Z4-57" style="edgeStyle=orthogonalEdgeStyle;rounded=0;orthogonalLoop=1;jettySize=auto;html=1;entryX=0;entryY=0.5;entryDx=0;entryDy=0;" parent="1" source="bQtUnsKeXZVRETvur1ST-4" target="HKo9quDZtJYabQAs-5Z4-42" edge="1">
          <mxGeometry relative="1" as="geometry">
            <Array as="points">
              <mxPoint x="170" y="700" />
            </Array>
          </mxGeometry>
        </mxCell>
        <mxCell id="bQtUnsKeXZVRETvur1ST-4" value="Array2" style="shape=parallelogram;perimeter=parallelogramPerimeter;whiteSpace=wrap;html=1;fixedSize=1;" parent="1" vertex="1">
          <mxGeometry x="110" y="520" width="120" height="60" as="geometry" />
        </mxCell>
        <mxCell id="HKo9quDZtJYabQAs-5Z4-4" value="" style="edgeStyle=orthogonalEdgeStyle;rounded=0;orthogonalLoop=1;jettySize=auto;html=1;" parent="1" source="HKo9quDZtJYabQAs-5Z4-1" target="HKo9quDZtJYabQAs-5Z4-3" edge="1">
          <mxGeometry relative="1" as="geometry" />
        </mxCell>
        <mxCell id="HKo9quDZtJYabQAs-5Z4-1" value="i+1,i&amp;lt;size của Array" style="rounded=0;whiteSpace=wrap;html=1;" parent="1" vertex="1">
          <mxGeometry x="330" y="280" width="120" height="60" as="geometry" />
        </mxCell>
        <mxCell id="HKo9quDZtJYabQAs-5Z4-2" value="Array1,Array2,i=0,j=0,a" style="rounded=0;whiteSpace=wrap;html=1;" parent="1" vertex="1">
          <mxGeometry x="100" y="150" width="140" height="60" as="geometry" />
        </mxCell>
        <mxCell id="HKo9quDZtJYabQAs-5Z4-6" value="" style="edgeStyle=orthogonalEdgeStyle;rounded=0;orthogonalLoop=1;jettySize=auto;html=1;" parent="1" source="HKo9quDZtJYabQAs-5Z4-3" edge="1">
          <mxGeometry relative="1" as="geometry">
            <mxPoint x="720" y="310" as="targetPoint" />
          </mxGeometry>
        </mxCell>
        <mxCell id="HKo9quDZtJYabQAs-5Z4-3" value="j+1,j&amp;lt;=Array[i]" style="whiteSpace=wrap;html=1;rounded=0;" parent="1" vertex="1">
          <mxGeometry x="530" y="280" width="120" height="60" as="geometry" />
        </mxCell>
        <mxCell id="HKo9quDZtJYabQAs-5Z4-8" value="" style="edgeStyle=orthogonalEdgeStyle;rounded=0;orthogonalLoop=1;jettySize=auto;html=1;" parent="1" edge="1">
          <mxGeometry relative="1" as="geometry">
            <mxPoint x="800" y="309.5" as="sourcePoint" />
            <mxPoint x="900" y="309.5" as="targetPoint" />
          </mxGeometry>
        </mxCell>
        <mxCell id="HKo9quDZtJYabQAs-5Z4-12" value="true" style="edgeLabel;html=1;align=center;verticalAlign=middle;resizable=0;points=[];" parent="HKo9quDZtJYabQAs-5Z4-8" vertex="1" connectable="0">
          <mxGeometry x="-0.14" relative="1" as="geometry">
            <mxPoint as="offset" />
          </mxGeometry>
        </mxCell>
        <mxCell id="HKo9quDZtJYabQAs-5Z4-9" value="Array[i] chia hết j" style="rhombus;whiteSpace=wrap;html=1;" parent="1" vertex="1">
          <mxGeometry x="720" y="270" width="80" height="80" as="geometry" />
        </mxCell>
        <mxCell id="HKo9quDZtJYabQAs-5Z4-15" style="edgeStyle=orthogonalEdgeStyle;rounded=0;orthogonalLoop=1;jettySize=auto;html=1;" parent="1" source="HKo9quDZtJYabQAs-5Z4-13" target="HKo9quDZtJYabQAs-5Z4-14" edge="1">
          <mxGeometry relative="1" as="geometry" />
        </mxCell>
        <mxCell id="HKo9quDZtJYabQAs-5Z4-20" style="edgeStyle=orthogonalEdgeStyle;rounded=0;orthogonalLoop=1;jettySize=auto;html=1;entryX=0.5;entryY=1;entryDx=0;entryDy=0;" parent="1" target="HKo9quDZtJYabQAs-5Z4-3" edge="1">
          <mxGeometry relative="1" as="geometry">
            <mxPoint x="960" y="340" as="sourcePoint" />
            <mxPoint x="650" y="360" as="targetPoint" />
            <Array as="points">
              <mxPoint x="960" y="470" />
              <mxPoint x="590" y="470" />
            </Array>
          </mxGeometry>
        </mxCell>
        <mxCell id="HKo9quDZtJYabQAs-5Z4-13" value="a+1" style="rounded=0;whiteSpace=wrap;html=1;" parent="1" vertex="1">
          <mxGeometry x="900" y="280" width="120" height="60" as="geometry" />
        </mxCell>
        <mxCell id="HKo9quDZtJYabQAs-5Z4-17" style="edgeStyle=orthogonalEdgeStyle;rounded=0;orthogonalLoop=1;jettySize=auto;html=1;exitX=1;exitY=0.5;exitDx=0;exitDy=0;entryX=0.5;entryY=0;entryDx=0;entryDy=0;" parent="1" source="HKo9quDZtJYabQAs-5Z4-14" target="HKo9quDZtJYabQAs-5Z4-16" edge="1">
          <mxGeometry relative="1" as="geometry" />
        </mxCell>
        <mxCell id="HKo9quDZtJYabQAs-5Z4-59" value="false" style="edgeLabel;html=1;align=center;verticalAlign=middle;resizable=0;points=[];" parent="HKo9quDZtJYabQAs-5Z4-17" vertex="1" connectable="0">
          <mxGeometry x="-0.4585" y="-1" relative="1" as="geometry">
            <mxPoint as="offset" />
          </mxGeometry>
        </mxCell>
        <mxCell id="HKo9quDZtJYabQAs-5Z4-19" value="" style="edgeStyle=orthogonalEdgeStyle;rounded=0;orthogonalLoop=1;jettySize=auto;html=1;" parent="1" source="HKo9quDZtJYabQAs-5Z4-14" target="HKo9quDZtJYabQAs-5Z4-18" edge="1">
          <mxGeometry relative="1" as="geometry" />
        </mxCell>
        <mxCell id="HKo9quDZtJYabQAs-5Z4-62" value="true" style="edgeLabel;html=1;align=center;verticalAlign=middle;resizable=0;points=[];" parent="HKo9quDZtJYabQAs-5Z4-19" vertex="1" connectable="0">
          <mxGeometry x="0.0963" y="-1" relative="1" as="geometry">
            <mxPoint as="offset" />
          </mxGeometry>
        </mxCell>
        <mxCell id="HKo9quDZtJYabQAs-5Z4-14" value="a=2" style="rhombus;whiteSpace=wrap;html=1;" parent="1" vertex="1">
          <mxGeometry x="1110" y="270" width="80" height="80" as="geometry" />
        </mxCell>
        <mxCell id="HKo9quDZtJYabQAs-5Z4-16" value="End" style="ellipse;whiteSpace=wrap;html=1;" parent="1" vertex="1">
          <mxGeometry x="1320" y="610" width="120" height="80" as="geometry" />
        </mxCell>
        <mxCell id="HKo9quDZtJYabQAs-5Z4-23" style="edgeStyle=orthogonalEdgeStyle;rounded=0;orthogonalLoop=1;jettySize=auto;html=1;entryX=0.5;entryY=0;entryDx=0;entryDy=0;" parent="1" source="HKo9quDZtJYabQAs-5Z4-18" target="HKo9quDZtJYabQAs-5Z4-1" edge="1">
          <mxGeometry relative="1" as="geometry" />
        </mxCell>
        <mxCell id="HKo9quDZtJYabQAs-5Z4-18" value="Array1[i] là số nguyên tố" style="whiteSpace=wrap;html=1;" parent="1" vertex="1">
          <mxGeometry x="1090" y="120" width="120" height="60" as="geometry" />
        </mxCell>
        <mxCell id="HKo9quDZtJYabQAs-5Z4-21" value="" style="endArrow=classic;html=1;rounded=0;exitX=0.5;exitY=0;exitDx=0;exitDy=0;" parent="1" source="HKo9quDZtJYabQAs-5Z4-9" edge="1">
          <mxGeometry width="50" height="50" relative="1" as="geometry">
            <mxPoint x="540" y="330" as="sourcePoint" />
            <mxPoint x="590" y="280" as="targetPoint" />
            <Array as="points">
              <mxPoint x="760" y="230" />
              <mxPoint x="590" y="230" />
            </Array>
          </mxGeometry>
        </mxCell>
        <mxCell id="HKo9quDZtJYabQAs-5Z4-22" value="false" style="edgeLabel;html=1;align=center;verticalAlign=middle;resizable=0;points=[];" parent="HKo9quDZtJYabQAs-5Z4-21" vertex="1" connectable="0">
          <mxGeometry x="-0.0795" y="-4" relative="1" as="geometry">
            <mxPoint as="offset" />
          </mxGeometry>
        </mxCell>
        <mxCell id="HKo9quDZtJYabQAs-5Z4-41" value="" style="edgeStyle=orthogonalEdgeStyle;rounded=0;orthogonalLoop=1;jettySize=auto;html=1;" parent="1" source="HKo9quDZtJYabQAs-5Z4-42" target="HKo9quDZtJYabQAs-5Z4-44" edge="1">
          <mxGeometry relative="1" as="geometry" />
        </mxCell>
        <mxCell id="HKo9quDZtJYabQAs-5Z4-42" value="i+1,i&amp;lt;size của Array" style="rounded=0;whiteSpace=wrap;html=1;" parent="1" vertex="1">
          <mxGeometry x="300" y="670" width="120" height="60" as="geometry" />
        </mxCell>
        <mxCell id="HKo9quDZtJYabQAs-5Z4-43" value="" style="edgeStyle=orthogonalEdgeStyle;rounded=0;orthogonalLoop=1;jettySize=auto;html=1;" parent="1" source="HKo9quDZtJYabQAs-5Z4-44" edge="1">
          <mxGeometry relative="1" as="geometry">
            <mxPoint x="690" y="700" as="targetPoint" />
          </mxGeometry>
        </mxCell>
        <mxCell id="HKo9quDZtJYabQAs-5Z4-44" value="j+1,j&amp;lt;=Array[i]" style="whiteSpace=wrap;html=1;rounded=0;" parent="1" vertex="1">
          <mxGeometry x="500" y="670" width="120" height="60" as="geometry" />
        </mxCell>
        <mxCell id="HKo9quDZtJYabQAs-5Z4-45" value="" style="edgeStyle=orthogonalEdgeStyle;rounded=0;orthogonalLoop=1;jettySize=auto;html=1;" parent="1" edge="1">
          <mxGeometry relative="1" as="geometry">
            <mxPoint x="770" y="699.5" as="sourcePoint" />
            <mxPoint x="870" y="699.5" as="targetPoint" />
          </mxGeometry>
        </mxCell>
        <mxCell id="HKo9quDZtJYabQAs-5Z4-46" value="true" style="edgeLabel;html=1;align=center;verticalAlign=middle;resizable=0;points=[];" parent="HKo9quDZtJYabQAs-5Z4-45" vertex="1" connectable="0">
          <mxGeometry x="-0.14" relative="1" as="geometry">
            <mxPoint as="offset" />
          </mxGeometry>
        </mxCell>
        <mxCell id="HKo9quDZtJYabQAs-5Z4-47" value="Array[i] chia hết j" style="rhombus;whiteSpace=wrap;html=1;" parent="1" vertex="1">
          <mxGeometry x="690" y="660" width="80" height="80" as="geometry" />
        </mxCell>
        <mxCell id="HKo9quDZtJYabQAs-5Z4-48" style="edgeStyle=orthogonalEdgeStyle;rounded=0;orthogonalLoop=1;jettySize=auto;html=1;" parent="1" source="HKo9quDZtJYabQAs-5Z4-50" target="HKo9quDZtJYabQAs-5Z4-52" edge="1">
          <mxGeometry relative="1" as="geometry" />
        </mxCell>
        <mxCell id="HKo9quDZtJYabQAs-5Z4-49" style="edgeStyle=orthogonalEdgeStyle;rounded=0;orthogonalLoop=1;jettySize=auto;html=1;entryX=0.5;entryY=1;entryDx=0;entryDy=0;" parent="1" target="HKo9quDZtJYabQAs-5Z4-44" edge="1">
          <mxGeometry relative="1" as="geometry">
            <mxPoint x="930" y="730" as="sourcePoint" />
            <mxPoint x="620" y="750" as="targetPoint" />
            <Array as="points">
              <mxPoint x="930" y="860" />
              <mxPoint x="560" y="860" />
            </Array>
          </mxGeometry>
        </mxCell>
        <mxCell id="HKo9quDZtJYabQAs-5Z4-50" value="a+1" style="rounded=0;whiteSpace=wrap;html=1;" parent="1" vertex="1">
          <mxGeometry x="870" y="670" width="120" height="60" as="geometry" />
        </mxCell>
        <mxCell id="HKo9quDZtJYabQAs-5Z4-51" value="" style="edgeStyle=orthogonalEdgeStyle;rounded=0;orthogonalLoop=1;jettySize=auto;html=1;" parent="1" source="HKo9quDZtJYabQAs-5Z4-52" target="HKo9quDZtJYabQAs-5Z4-54" edge="1">
          <mxGeometry relative="1" as="geometry" />
        </mxCell>
        <mxCell id="HKo9quDZtJYabQAs-5Z4-61" value="true" style="edgeLabel;html=1;align=center;verticalAlign=middle;resizable=0;points=[];" parent="HKo9quDZtJYabQAs-5Z4-51" vertex="1" connectable="0">
          <mxGeometry x="-0.1037" y="-3" relative="1" as="geometry">
            <mxPoint as="offset" />
          </mxGeometry>
        </mxCell>
        <mxCell id="HKo9quDZtJYabQAs-5Z4-58" style="edgeStyle=orthogonalEdgeStyle;rounded=0;orthogonalLoop=1;jettySize=auto;html=1;" parent="1" source="HKo9quDZtJYabQAs-5Z4-52" target="HKo9quDZtJYabQAs-5Z4-16" edge="1">
          <mxGeometry relative="1" as="geometry" />
        </mxCell>
        <mxCell id="HKo9quDZtJYabQAs-5Z4-60" value="false" style="edgeLabel;html=1;align=center;verticalAlign=middle;resizable=0;points=[];" parent="HKo9quDZtJYabQAs-5Z4-58" vertex="1" connectable="0">
          <mxGeometry x="-0.3238" relative="1" as="geometry">
            <mxPoint as="offset" />
          </mxGeometry>
        </mxCell>
        <mxCell id="HKo9quDZtJYabQAs-5Z4-52" value="a=2" style="rhombus;whiteSpace=wrap;html=1;" parent="1" vertex="1">
          <mxGeometry x="1080" y="660" width="80" height="80" as="geometry" />
        </mxCell>
        <mxCell id="HKo9quDZtJYabQAs-5Z4-53" style="edgeStyle=orthogonalEdgeStyle;rounded=0;orthogonalLoop=1;jettySize=auto;html=1;entryX=0.5;entryY=0;entryDx=0;entryDy=0;" parent="1" source="HKo9quDZtJYabQAs-5Z4-54" target="HKo9quDZtJYabQAs-5Z4-42" edge="1">
          <mxGeometry relative="1" as="geometry" />
        </mxCell>
        <mxCell id="HKo9quDZtJYabQAs-5Z4-54" value="Array2[i] là số nguyên tố" style="whiteSpace=wrap;html=1;" parent="1" vertex="1">
          <mxGeometry x="1060" y="510" width="120" height="60" as="geometry" />
        </mxCell>
        <mxCell id="HKo9quDZtJYabQAs-5Z4-55" value="" style="endArrow=classic;html=1;rounded=0;exitX=0.5;exitY=0;exitDx=0;exitDy=0;" parent="1" source="HKo9quDZtJYabQAs-5Z4-47" edge="1">
          <mxGeometry width="50" height="50" relative="1" as="geometry">
            <mxPoint x="510" y="720" as="sourcePoint" />
            <mxPoint x="560" y="670" as="targetPoint" />
            <Array as="points">
              <mxPoint x="730" y="620" />
              <mxPoint x="560" y="620" />
            </Array>
          </mxGeometry>
        </mxCell>
        <mxCell id="HKo9quDZtJYabQAs-5Z4-56" value="false" style="edgeLabel;html=1;align=center;verticalAlign=middle;resizable=0;points=[];" parent="HKo9quDZtJYabQAs-5Z4-55" vertex="1" connectable="0">
          <mxGeometry x="-0.0795" y="-4" relative="1" as="geometry">
            <mxPoint as="offset" />
          </mxGeometry>
        </mxCell>
      </root>
    </mxGraphModel>
  </diagram>
  <diagram id="upwuGTleK9J5LFBYwstR" name="Page-4">
    <mxGraphModel dx="1173" dy="764" grid="1" gridSize="10" guides="1" tooltips="1" connect="1" arrows="1" fold="1" page="1" pageScale="1" pageWidth="850" pageHeight="1100" math="0" shadow="0">
      <root>
        <mxCell id="0" />
        <mxCell id="1" parent="0" />
        <mxCell id="LUMta34yBjuE6c1PEFNU-2" style="edgeStyle=orthogonalEdgeStyle;rounded=0;orthogonalLoop=1;jettySize=auto;html=1;" edge="1" parent="1" source="uXD4L4VOZYI3RM8xVVuh-1" target="LUMta34yBjuE6c1PEFNU-1">
          <mxGeometry relative="1" as="geometry" />
        </mxCell>
        <mxCell id="uXD4L4VOZYI3RM8xVVuh-1" value="Start" style="ellipse;whiteSpace=wrap;html=1;" parent="1" vertex="1">
          <mxGeometry x="90" y="80" width="120" height="80" as="geometry" />
        </mxCell>
        <mxCell id="LUMta34yBjuE6c1PEFNU-4" value="" style="edgeStyle=orthogonalEdgeStyle;rounded=0;orthogonalLoop=1;jettySize=auto;html=1;" edge="1" parent="1" source="LUMta34yBjuE6c1PEFNU-1" target="LUMta34yBjuE6c1PEFNU-3">
          <mxGeometry relative="1" as="geometry" />
        </mxCell>
        <mxCell id="LUMta34yBjuE6c1PEFNU-9" value="" style="edgeStyle=orthogonalEdgeStyle;rounded=0;orthogonalLoop=1;jettySize=auto;html=1;" edge="1" parent="1" source="LUMta34yBjuE6c1PEFNU-1" target="LUMta34yBjuE6c1PEFNU-8">
          <mxGeometry relative="1" as="geometry" />
        </mxCell>
        <mxCell id="LUMta34yBjuE6c1PEFNU-1" value="Array1" style="shape=parallelogram;perimeter=parallelogramPerimeter;whiteSpace=wrap;html=1;fixedSize=1;" vertex="1" parent="1">
          <mxGeometry x="90" y="330" width="120" height="60" as="geometry" />
        </mxCell>
        <mxCell id="xSUj-TPMiZwVDMBMN8Jl-21" style="edgeStyle=orthogonalEdgeStyle;rounded=0;orthogonalLoop=1;jettySize=auto;html=1;entryX=0;entryY=0.5;entryDx=0;entryDy=0;" edge="1" parent="1" source="LUMta34yBjuE6c1PEFNU-3" target="xSUj-TPMiZwVDMBMN8Jl-13">
          <mxGeometry relative="1" as="geometry" />
        </mxCell>
        <mxCell id="LUMta34yBjuE6c1PEFNU-3" value="Array2" style="shape=parallelogram;perimeter=parallelogramPerimeter;whiteSpace=wrap;html=1;fixedSize=1;" vertex="1" parent="1">
          <mxGeometry x="90" y="650" width="120" height="60" as="geometry" />
        </mxCell>
        <mxCell id="LUMta34yBjuE6c1PEFNU-7" value="i=0" style="rounded=0;whiteSpace=wrap;html=1;" vertex="1" parent="1">
          <mxGeometry x="90" y="200" width="120" height="60" as="geometry" />
        </mxCell>
        <mxCell id="xSUj-TPMiZwVDMBMN8Jl-2" value="" style="edgeStyle=orthogonalEdgeStyle;rounded=0;orthogonalLoop=1;jettySize=auto;html=1;" edge="1" parent="1" source="LUMta34yBjuE6c1PEFNU-8" target="xSUj-TPMiZwVDMBMN8Jl-1">
          <mxGeometry relative="1" as="geometry" />
        </mxCell>
        <mxCell id="LUMta34yBjuE6c1PEFNU-8" value="i+1,i&amp;lt;size của Array1" style="whiteSpace=wrap;html=1;" vertex="1" parent="1">
          <mxGeometry x="290" y="330" width="120" height="60" as="geometry" />
        </mxCell>
        <mxCell id="xSUj-TPMiZwVDMBMN8Jl-4" value="" style="edgeStyle=orthogonalEdgeStyle;rounded=0;orthogonalLoop=1;jettySize=auto;html=1;" edge="1" parent="1" source="xSUj-TPMiZwVDMBMN8Jl-1" target="xSUj-TPMiZwVDMBMN8Jl-3">
          <mxGeometry relative="1" as="geometry" />
        </mxCell>
        <mxCell id="xSUj-TPMiZwVDMBMN8Jl-11" value="false" style="edgeLabel;html=1;align=center;verticalAlign=middle;resizable=0;points=[];" vertex="1" connectable="0" parent="xSUj-TPMiZwVDMBMN8Jl-4">
          <mxGeometry x="-0.2178" y="-1" relative="1" as="geometry">
            <mxPoint as="offset" />
          </mxGeometry>
        </mxCell>
        <mxCell id="xSUj-TPMiZwVDMBMN8Jl-6" value="" style="edgeStyle=orthogonalEdgeStyle;rounded=0;orthogonalLoop=1;jettySize=auto;html=1;" edge="1" parent="1" source="xSUj-TPMiZwVDMBMN8Jl-1" target="xSUj-TPMiZwVDMBMN8Jl-5">
          <mxGeometry relative="1" as="geometry" />
        </mxCell>
        <mxCell id="xSUj-TPMiZwVDMBMN8Jl-10" value="true" style="edgeLabel;html=1;align=center;verticalAlign=middle;resizable=0;points=[];" vertex="1" connectable="0" parent="xSUj-TPMiZwVDMBMN8Jl-6">
          <mxGeometry x="-0.2042" relative="1" as="geometry">
            <mxPoint as="offset" />
          </mxGeometry>
        </mxCell>
        <mxCell id="xSUj-TPMiZwVDMBMN8Jl-1" value="Array1[i] != Array1[n-i]" style="rhombus;whiteSpace=wrap;html=1;" vertex="1" parent="1">
          <mxGeometry x="495" y="292.5" width="120" height="135" as="geometry" />
        </mxCell>
        <mxCell id="xSUj-TPMiZwVDMBMN8Jl-24" style="edgeStyle=orthogonalEdgeStyle;rounded=0;orthogonalLoop=1;jettySize=auto;html=1;entryX=0.5;entryY=0;entryDx=0;entryDy=0;" edge="1" parent="1" source="xSUj-TPMiZwVDMBMN8Jl-3" target="xSUj-TPMiZwVDMBMN8Jl-23">
          <mxGeometry relative="1" as="geometry" />
        </mxCell>
        <mxCell id="xSUj-TPMiZwVDMBMN8Jl-3" value="Đây là mảng đối xứng" style="whiteSpace=wrap;html=1;" vertex="1" parent="1">
          <mxGeometry x="685" y="330" width="120" height="60" as="geometry" />
        </mxCell>
        <mxCell id="xSUj-TPMiZwVDMBMN8Jl-9" style="edgeStyle=orthogonalEdgeStyle;rounded=0;orthogonalLoop=1;jettySize=auto;html=1;entryX=0.5;entryY=0;entryDx=0;entryDy=0;" edge="1" parent="1" source="xSUj-TPMiZwVDMBMN8Jl-5" target="LUMta34yBjuE6c1PEFNU-8">
          <mxGeometry relative="1" as="geometry" />
        </mxCell>
        <mxCell id="xSUj-TPMiZwVDMBMN8Jl-5" value="Đây không phải mảng đối xứng" style="whiteSpace=wrap;html=1;" vertex="1" parent="1">
          <mxGeometry x="495" y="150" width="120" height="60" as="geometry" />
        </mxCell>
        <mxCell id="xSUj-TPMiZwVDMBMN8Jl-12" value="" style="edgeStyle=orthogonalEdgeStyle;rounded=0;orthogonalLoop=1;jettySize=auto;html=1;" edge="1" parent="1" source="xSUj-TPMiZwVDMBMN8Jl-13" target="xSUj-TPMiZwVDMBMN8Jl-18">
          <mxGeometry relative="1" as="geometry" />
        </mxCell>
        <mxCell id="xSUj-TPMiZwVDMBMN8Jl-13" value="i+1,i&amp;lt;size của Array2" style="whiteSpace=wrap;html=1;" vertex="1" parent="1">
          <mxGeometry x="280" y="650" width="120" height="60" as="geometry" />
        </mxCell>
        <mxCell id="xSUj-TPMiZwVDMBMN8Jl-14" value="" style="edgeStyle=orthogonalEdgeStyle;rounded=0;orthogonalLoop=1;jettySize=auto;html=1;" edge="1" parent="1" source="xSUj-TPMiZwVDMBMN8Jl-18" target="xSUj-TPMiZwVDMBMN8Jl-19">
          <mxGeometry relative="1" as="geometry" />
        </mxCell>
        <mxCell id="xSUj-TPMiZwVDMBMN8Jl-15" value="false" style="edgeLabel;html=1;align=center;verticalAlign=middle;resizable=0;points=[];" vertex="1" connectable="0" parent="xSUj-TPMiZwVDMBMN8Jl-14">
          <mxGeometry x="-0.2178" y="-1" relative="1" as="geometry">
            <mxPoint as="offset" />
          </mxGeometry>
        </mxCell>
        <mxCell id="xSUj-TPMiZwVDMBMN8Jl-16" value="" style="edgeStyle=orthogonalEdgeStyle;rounded=0;orthogonalLoop=1;jettySize=auto;html=1;" edge="1" parent="1" source="xSUj-TPMiZwVDMBMN8Jl-18">
          <mxGeometry relative="1" as="geometry">
            <mxPoint x="545" y="530" as="targetPoint" />
          </mxGeometry>
        </mxCell>
        <mxCell id="xSUj-TPMiZwVDMBMN8Jl-17" value="true" style="edgeLabel;html=1;align=center;verticalAlign=middle;resizable=0;points=[];" vertex="1" connectable="0" parent="xSUj-TPMiZwVDMBMN8Jl-16">
          <mxGeometry x="-0.2042" relative="1" as="geometry">
            <mxPoint as="offset" />
          </mxGeometry>
        </mxCell>
        <mxCell id="xSUj-TPMiZwVDMBMN8Jl-18" value="Array2[i] != Array2[n-i]" style="rhombus;whiteSpace=wrap;html=1;" vertex="1" parent="1">
          <mxGeometry x="480" y="612.5" width="130" height="135" as="geometry" />
        </mxCell>
        <mxCell id="xSUj-TPMiZwVDMBMN8Jl-26" style="edgeStyle=orthogonalEdgeStyle;rounded=0;orthogonalLoop=1;jettySize=auto;html=1;entryX=0.5;entryY=1;entryDx=0;entryDy=0;" edge="1" parent="1" source="xSUj-TPMiZwVDMBMN8Jl-19" target="xSUj-TPMiZwVDMBMN8Jl-23">
          <mxGeometry relative="1" as="geometry" />
        </mxCell>
        <mxCell id="xSUj-TPMiZwVDMBMN8Jl-19" value="Đây là mảng đối xứng" style="whiteSpace=wrap;html=1;" vertex="1" parent="1">
          <mxGeometry x="685" y="650" width="120" height="60" as="geometry" />
        </mxCell>
        <mxCell id="xSUj-TPMiZwVDMBMN8Jl-20" style="edgeStyle=orthogonalEdgeStyle;rounded=0;orthogonalLoop=1;jettySize=auto;html=1;entryX=0.5;entryY=0;entryDx=0;entryDy=0;" edge="1" parent="1" target="xSUj-TPMiZwVDMBMN8Jl-13">
          <mxGeometry relative="1" as="geometry">
            <mxPoint x="485" y="500" as="sourcePoint" />
          </mxGeometry>
        </mxCell>
        <mxCell id="xSUj-TPMiZwVDMBMN8Jl-22" value="Đây không phải mảng đối xứng" style="whiteSpace=wrap;html=1;" vertex="1" parent="1">
          <mxGeometry x="485" y="470" width="120" height="60" as="geometry" />
        </mxCell>
        <mxCell id="xSUj-TPMiZwVDMBMN8Jl-23" value="End" style="ellipse;whiteSpace=wrap;html=1;" vertex="1" parent="1">
          <mxGeometry x="685" y="470" width="120" height="80" as="geometry" />
        </mxCell>
      </root>
    </mxGraphModel>
  </diagram>
  <diagram id="i5im-Z1c7gtRaj4sA1NE" name="Page-5">
    <mxGraphModel dx="978" dy="637" grid="1" gridSize="10" guides="1" tooltips="1" connect="1" arrows="1" fold="1" page="1" pageScale="1" pageWidth="850" pageHeight="1100" math="0" shadow="0">
      <root>
        <mxCell id="0" />
        <mxCell id="1" parent="0" />
        <mxCell id="YW37ChkgRjYlhzOjoNhH-3" style="edgeStyle=orthogonalEdgeStyle;rounded=0;orthogonalLoop=1;jettySize=auto;html=1;entryX=0.5;entryY=0;entryDx=0;entryDy=0;" edge="1" parent="1" source="YW37ChkgRjYlhzOjoNhH-1" target="YW37ChkgRjYlhzOjoNhH-2">
          <mxGeometry relative="1" as="geometry" />
        </mxCell>
        <mxCell id="YW37ChkgRjYlhzOjoNhH-1" value="Start" style="ellipse;whiteSpace=wrap;html=1;" vertex="1" parent="1">
          <mxGeometry x="80" y="60" width="120" height="80" as="geometry" />
        </mxCell>
        <mxCell id="YW37ChkgRjYlhzOjoNhH-6" style="edgeStyle=orthogonalEdgeStyle;rounded=0;orthogonalLoop=1;jettySize=auto;html=1;" edge="1" parent="1" source="YW37ChkgRjYlhzOjoNhH-2" target="YW37ChkgRjYlhzOjoNhH-5">
          <mxGeometry relative="1" as="geometry" />
        </mxCell>
        <mxCell id="YW37ChkgRjYlhzOjoNhH-2" value="i=0,j=0,k=0,a=0,choice,Array" style="rounded=0;whiteSpace=wrap;html=1;" vertex="1" parent="1">
          <mxGeometry x="37.5" y="190" width="205" height="60" as="geometry" />
        </mxCell>
        <mxCell id="YW37ChkgRjYlhzOjoNhH-8" value="" style="edgeStyle=orthogonalEdgeStyle;rounded=0;orthogonalLoop=1;jettySize=auto;html=1;" edge="1" parent="1" source="YW37ChkgRjYlhzOjoNhH-5" target="YW37ChkgRjYlhzOjoNhH-7">
          <mxGeometry relative="1" as="geometry" />
        </mxCell>
        <mxCell id="YW37ChkgRjYlhzOjoNhH-15" value="" style="edgeStyle=orthogonalEdgeStyle;rounded=0;orthogonalLoop=1;jettySize=auto;html=1;" edge="1" parent="1" source="YW37ChkgRjYlhzOjoNhH-5" target="YW37ChkgRjYlhzOjoNhH-14">
          <mxGeometry relative="1" as="geometry" />
        </mxCell>
        <mxCell id="YW37ChkgRjYlhzOjoNhH-5" value="choice = 1" style="rhombus;whiteSpace=wrap;html=1;" vertex="1" parent="1">
          <mxGeometry x="100" y="310" width="80" height="80" as="geometry" />
        </mxCell>
        <mxCell id="YW37ChkgRjYlhzOjoNhH-10" value="" style="edgeStyle=orthogonalEdgeStyle;rounded=0;orthogonalLoop=1;jettySize=auto;html=1;" edge="1" parent="1" source="YW37ChkgRjYlhzOjoNhH-7" target="YW37ChkgRjYlhzOjoNhH-9">
          <mxGeometry relative="1" as="geometry" />
        </mxCell>
        <mxCell id="YW37ChkgRjYlhzOjoNhH-7" value="i+1,i &amp;lt; row of Array" style="whiteSpace=wrap;html=1;" vertex="1" parent="1">
          <mxGeometry x="240" y="320" width="120" height="60" as="geometry" />
        </mxCell>
        <mxCell id="YW37ChkgRjYlhzOjoNhH-12" value="" style="edgeStyle=orthogonalEdgeStyle;rounded=0;orthogonalLoop=1;jettySize=auto;html=1;entryX=0;entryY=0.5;entryDx=0;entryDy=0;" edge="1" parent="1" source="YW37ChkgRjYlhzOjoNhH-9" target="edbcC7n44iYF4WqJxz-S-1">
          <mxGeometry relative="1" as="geometry">
            <mxPoint x="640" y="349.9999999999999" as="targetPoint" />
          </mxGeometry>
        </mxCell>
        <mxCell id="YW37ChkgRjYlhzOjoNhH-9" value="j+1,j&amp;lt; col of Array" style="whiteSpace=wrap;html=1;" vertex="1" parent="1">
          <mxGeometry x="440" y="320" width="120" height="60" as="geometry" />
        </mxCell>
        <mxCell id="YW37ChkgRjYlhzOjoNhH-13" style="edgeStyle=orthogonalEdgeStyle;rounded=0;orthogonalLoop=1;jettySize=auto;html=1;entryX=0.5;entryY=0;entryDx=0;entryDy=0;" edge="1" parent="1" target="YW37ChkgRjYlhzOjoNhH-7">
          <mxGeometry relative="1" as="geometry">
            <mxPoint x="690" y="319.9999999999999" as="sourcePoint" />
            <Array as="points">
              <mxPoint x="690" y="260" />
              <mxPoint x="300" y="260" />
            </Array>
          </mxGeometry>
        </mxCell>
        <mxCell id="uurPQJ2I4AdjC7lXjVcu-26" style="edgeStyle=orthogonalEdgeStyle;rounded=0;orthogonalLoop=1;jettySize=auto;html=1;" edge="1" parent="1" target="uurPQJ2I4AdjC7lXjVcu-24">
          <mxGeometry relative="1" as="geometry">
            <mxPoint x="760" y="350.0000000000001" as="sourcePoint" />
          </mxGeometry>
        </mxCell>
        <mxCell id="YW37ChkgRjYlhzOjoNhH-24" value="" style="edgeStyle=orthogonalEdgeStyle;rounded=0;orthogonalLoop=1;jettySize=auto;html=1;" edge="1" parent="1" source="YW37ChkgRjYlhzOjoNhH-14" target="YW37ChkgRjYlhzOjoNhH-23">
          <mxGeometry relative="1" as="geometry" />
        </mxCell>
        <mxCell id="YW37ChkgRjYlhzOjoNhH-14" value="choice = 2" style="rhombus;whiteSpace=wrap;html=1;" vertex="1" parent="1">
          <mxGeometry x="100" y="470" width="80" height="80" as="geometry" />
        </mxCell>
        <mxCell id="YW37ChkgRjYlhzOjoNhH-16" value="" style="edgeStyle=orthogonalEdgeStyle;rounded=0;orthogonalLoop=1;jettySize=auto;html=1;" edge="1" parent="1" target="YW37ChkgRjYlhzOjoNhH-18">
          <mxGeometry relative="1" as="geometry">
            <mxPoint x="180" y="510" as="sourcePoint" />
            <Array as="points">
              <mxPoint x="190" y="510" />
              <mxPoint x="190" y="510" />
            </Array>
          </mxGeometry>
        </mxCell>
        <mxCell id="YW37ChkgRjYlhzOjoNhH-17" value="" style="edgeStyle=orthogonalEdgeStyle;rounded=0;orthogonalLoop=1;jettySize=auto;html=1;" edge="1" parent="1" source="YW37ChkgRjYlhzOjoNhH-18" target="YW37ChkgRjYlhzOjoNhH-20">
          <mxGeometry relative="1" as="geometry" />
        </mxCell>
        <mxCell id="YW37ChkgRjYlhzOjoNhH-18" value="i+1,i &amp;lt; row of Array" style="whiteSpace=wrap;html=1;" vertex="1" parent="1">
          <mxGeometry x="240" y="480" width="120" height="60" as="geometry" />
        </mxCell>
        <mxCell id="YW37ChkgRjYlhzOjoNhH-19" value="" style="edgeStyle=orthogonalEdgeStyle;rounded=0;orthogonalLoop=1;jettySize=auto;html=1;" edge="1" parent="1" source="YW37ChkgRjYlhzOjoNhH-20" target="YW37ChkgRjYlhzOjoNhH-21">
          <mxGeometry relative="1" as="geometry" />
        </mxCell>
        <mxCell id="YW37ChkgRjYlhzOjoNhH-20" value="j+1,j&amp;lt; col of Array" style="whiteSpace=wrap;html=1;" vertex="1" parent="1">
          <mxGeometry x="440" y="480" width="120" height="60" as="geometry" />
        </mxCell>
        <mxCell id="YW37ChkgRjYlhzOjoNhH-21" value="In ra Array[i][j]" style="whiteSpace=wrap;html=1;" vertex="1" parent="1">
          <mxGeometry x="640" y="480" width="120" height="60" as="geometry" />
        </mxCell>
        <mxCell id="YW37ChkgRjYlhzOjoNhH-22" value="" style="endArrow=classic;html=1;rounded=0;exitX=0.5;exitY=0;exitDx=0;exitDy=0;" edge="1" parent="1" source="YW37ChkgRjYlhzOjoNhH-21">
          <mxGeometry width="50" height="50" relative="1" as="geometry">
            <mxPoint x="250" y="530" as="sourcePoint" />
            <mxPoint x="300" y="480" as="targetPoint" />
            <Array as="points">
              <mxPoint x="700" y="440" />
              <mxPoint x="500" y="440" />
              <mxPoint x="300" y="440" />
            </Array>
          </mxGeometry>
        </mxCell>
        <mxCell id="YW37ChkgRjYlhzOjoNhH-33" style="edgeStyle=orthogonalEdgeStyle;rounded=0;orthogonalLoop=1;jettySize=auto;html=1;" edge="1" parent="1" source="YW37ChkgRjYlhzOjoNhH-23" target="YW37ChkgRjYlhzOjoNhH-32">
          <mxGeometry relative="1" as="geometry" />
        </mxCell>
        <mxCell id="YW37ChkgRjYlhzOjoNhH-44" value="" style="edgeStyle=orthogonalEdgeStyle;rounded=0;orthogonalLoop=1;jettySize=auto;html=1;" edge="1" parent="1" source="YW37ChkgRjYlhzOjoNhH-23" target="YW37ChkgRjYlhzOjoNhH-43">
          <mxGeometry relative="1" as="geometry" />
        </mxCell>
        <mxCell id="YW37ChkgRjYlhzOjoNhH-23" value="choice = 3" style="rhombus;whiteSpace=wrap;html=1;" vertex="1" parent="1">
          <mxGeometry x="100" y="630" width="80" height="80" as="geometry" />
        </mxCell>
        <mxCell id="YW37ChkgRjYlhzOjoNhH-35" value="" style="edgeStyle=orthogonalEdgeStyle;rounded=0;orthogonalLoop=1;jettySize=auto;html=1;" edge="1" parent="1" source="YW37ChkgRjYlhzOjoNhH-32">
          <mxGeometry relative="1" as="geometry">
            <mxPoint x="400" y="670" as="targetPoint" />
          </mxGeometry>
        </mxCell>
        <mxCell id="YW37ChkgRjYlhzOjoNhH-39" value="true" style="edgeLabel;html=1;align=center;verticalAlign=middle;resizable=0;points=[];" vertex="1" connectable="0" parent="YW37ChkgRjYlhzOjoNhH-35">
          <mxGeometry x="-0.1305" y="1" relative="1" as="geometry">
            <mxPoint as="offset" />
          </mxGeometry>
        </mxCell>
        <mxCell id="YW37ChkgRjYlhzOjoNhH-37" value="" style="edgeStyle=orthogonalEdgeStyle;rounded=0;orthogonalLoop=1;jettySize=auto;html=1;" edge="1" parent="1" source="YW37ChkgRjYlhzOjoNhH-32" target="YW37ChkgRjYlhzOjoNhH-36">
          <mxGeometry relative="1" as="geometry" />
        </mxCell>
        <mxCell id="YW37ChkgRjYlhzOjoNhH-38" value="false" style="edgeLabel;html=1;align=center;verticalAlign=middle;resizable=0;points=[];" vertex="1" connectable="0" parent="YW37ChkgRjYlhzOjoNhH-37">
          <mxGeometry x="-0.24" y="1" relative="1" as="geometry">
            <mxPoint as="offset" />
          </mxGeometry>
        </mxCell>
        <mxCell id="YW37ChkgRjYlhzOjoNhH-32" value="row of Arrayf=0" style="rhombus;whiteSpace=wrap;html=1;" vertex="1" parent="1">
          <mxGeometry x="240" y="630" width="80" height="80" as="geometry" />
        </mxCell>
        <mxCell id="YW37ChkgRjYlhzOjoNhH-42" value="" style="edgeStyle=orthogonalEdgeStyle;rounded=0;orthogonalLoop=1;jettySize=auto;html=1;" edge="1" parent="1" source="YW37ChkgRjYlhzOjoNhH-36" target="YW37ChkgRjYlhzOjoNhH-41">
          <mxGeometry relative="1" as="geometry" />
        </mxCell>
        <mxCell id="YW37ChkgRjYlhzOjoNhH-55" value="true" style="edgeLabel;html=1;align=center;verticalAlign=middle;resizable=0;points=[];" vertex="1" connectable="0" parent="YW37ChkgRjYlhzOjoNhH-42">
          <mxGeometry x="-0.1349" y="1" relative="1" as="geometry">
            <mxPoint x="1" as="offset" />
          </mxGeometry>
        </mxCell>
        <mxCell id="YW37ChkgRjYlhzOjoNhH-36" value="row of Array= row-1" style="rhombus;whiteSpace=wrap;html=1;" vertex="1" parent="1">
          <mxGeometry x="217.5" y="760" width="125" height="130" as="geometry" />
        </mxCell>
        <mxCell id="YW37ChkgRjYlhzOjoNhH-40" value="Array[0][0],Array[0][col -1]" style="rounded=0;whiteSpace=wrap;html=1;" vertex="1" parent="1">
          <mxGeometry x="400" y="640" width="170" height="60" as="geometry" />
        </mxCell>
        <mxCell id="YW37ChkgRjYlhzOjoNhH-41" value="Array[row-1][0],Array[row-1][col -1]" style="whiteSpace=wrap;html=1;" vertex="1" parent="1">
          <mxGeometry x="450" y="787.5" width="250" height="75" as="geometry" />
        </mxCell>
        <mxCell id="YW37ChkgRjYlhzOjoNhH-70" value="" style="edgeStyle=orthogonalEdgeStyle;rounded=0;orthogonalLoop=1;jettySize=auto;html=1;" edge="1" parent="1" source="YW37ChkgRjYlhzOjoNhH-43" target="YW37ChkgRjYlhzOjoNhH-69">
          <mxGeometry relative="1" as="geometry" />
        </mxCell>
        <mxCell id="YW37ChkgRjYlhzOjoNhH-43" value="choice = 4" style="rhombus;whiteSpace=wrap;html=1;" vertex="1" parent="1">
          <mxGeometry x="100" y="1010" width="80" height="80" as="geometry" />
        </mxCell>
        <mxCell id="YW37ChkgRjYlhzOjoNhH-47" value="" style="edgeStyle=orthogonalEdgeStyle;rounded=0;orthogonalLoop=1;jettySize=auto;html=1;" edge="1" parent="1" target="YW37ChkgRjYlhzOjoNhH-49">
          <mxGeometry relative="1" as="geometry">
            <mxPoint x="180" y="1050" as="sourcePoint" />
            <Array as="points">
              <mxPoint x="190" y="1050" />
              <mxPoint x="190" y="1050" />
            </Array>
          </mxGeometry>
        </mxCell>
        <mxCell id="YW37ChkgRjYlhzOjoNhH-48" value="" style="edgeStyle=orthogonalEdgeStyle;rounded=0;orthogonalLoop=1;jettySize=auto;html=1;" edge="1" parent="1" source="YW37ChkgRjYlhzOjoNhH-49" target="YW37ChkgRjYlhzOjoNhH-50">
          <mxGeometry relative="1" as="geometry" />
        </mxCell>
        <mxCell id="YW37ChkgRjYlhzOjoNhH-49" value="i+1,i &amp;lt; row of Array" style="whiteSpace=wrap;html=1;" vertex="1" parent="1">
          <mxGeometry x="240" y="1020" width="120" height="60" as="geometry" />
        </mxCell>
        <mxCell id="YW37ChkgRjYlhzOjoNhH-52" value="" style="edgeStyle=orthogonalEdgeStyle;rounded=0;orthogonalLoop=1;jettySize=auto;html=1;" edge="1" parent="1" source="YW37ChkgRjYlhzOjoNhH-50" target="YW37ChkgRjYlhzOjoNhH-51">
          <mxGeometry relative="1" as="geometry" />
        </mxCell>
        <mxCell id="YW37ChkgRjYlhzOjoNhH-50" value="j+1,j&amp;lt; col of Array" style="whiteSpace=wrap;html=1;" vertex="1" parent="1">
          <mxGeometry x="440" y="1020" width="120" height="60" as="geometry" />
        </mxCell>
        <mxCell id="YW37ChkgRjYlhzOjoNhH-54" value="" style="edgeStyle=orthogonalEdgeStyle;rounded=0;orthogonalLoop=1;jettySize=auto;html=1;" edge="1" parent="1" source="YW37ChkgRjYlhzOjoNhH-51" target="YW37ChkgRjYlhzOjoNhH-53">
          <mxGeometry relative="1" as="geometry" />
        </mxCell>
        <mxCell id="YW37ChkgRjYlhzOjoNhH-67" value="false" style="edgeLabel;html=1;align=center;verticalAlign=middle;resizable=0;points=[];" vertex="1" connectable="0" parent="YW37ChkgRjYlhzOjoNhH-54">
          <mxGeometry x="-0.2083" y="-1" relative="1" as="geometry">
            <mxPoint as="offset" />
          </mxGeometry>
        </mxCell>
        <mxCell id="YW37ChkgRjYlhzOjoNhH-59" value="" style="edgeStyle=orthogonalEdgeStyle;rounded=0;orthogonalLoop=1;jettySize=auto;html=1;" edge="1" parent="1" source="YW37ChkgRjYlhzOjoNhH-51" target="YW37ChkgRjYlhzOjoNhH-58">
          <mxGeometry relative="1" as="geometry" />
        </mxCell>
        <mxCell id="YW37ChkgRjYlhzOjoNhH-65" value="true" style="edgeLabel;html=1;align=center;verticalAlign=middle;resizable=0;points=[];" vertex="1" connectable="0" parent="YW37ChkgRjYlhzOjoNhH-59">
          <mxGeometry x="0.1667" y="-1" relative="1" as="geometry">
            <mxPoint as="offset" />
          </mxGeometry>
        </mxCell>
        <mxCell id="YW37ChkgRjYlhzOjoNhH-51" value="i=0" style="rhombus;whiteSpace=wrap;html=1;" vertex="1" parent="1">
          <mxGeometry x="620" y="1010" width="80" height="80" as="geometry" />
        </mxCell>
        <mxCell id="YW37ChkgRjYlhzOjoNhH-57" value="" style="edgeStyle=orthogonalEdgeStyle;rounded=0;orthogonalLoop=1;jettySize=auto;html=1;" edge="1" parent="1" source="YW37ChkgRjYlhzOjoNhH-53" target="YW37ChkgRjYlhzOjoNhH-56">
          <mxGeometry relative="1" as="geometry" />
        </mxCell>
        <mxCell id="YW37ChkgRjYlhzOjoNhH-68" value="false" style="edgeLabel;html=1;align=center;verticalAlign=middle;resizable=0;points=[];" vertex="1" connectable="0" parent="YW37ChkgRjYlhzOjoNhH-57">
          <mxGeometry x="-0.28" y="-2" relative="1" as="geometry">
            <mxPoint as="offset" />
          </mxGeometry>
        </mxCell>
        <mxCell id="YW37ChkgRjYlhzOjoNhH-62" value="" style="edgeStyle=orthogonalEdgeStyle;rounded=0;orthogonalLoop=1;jettySize=auto;html=1;" edge="1" parent="1" source="YW37ChkgRjYlhzOjoNhH-53" target="YW37ChkgRjYlhzOjoNhH-61">
          <mxGeometry relative="1" as="geometry" />
        </mxCell>
        <mxCell id="YW37ChkgRjYlhzOjoNhH-66" value="true" style="edgeLabel;html=1;align=center;verticalAlign=middle;resizable=0;points=[];" vertex="1" connectable="0" parent="YW37ChkgRjYlhzOjoNhH-62">
          <mxGeometry x="0.0667" y="2" relative="1" as="geometry">
            <mxPoint as="offset" />
          </mxGeometry>
        </mxCell>
        <mxCell id="YW37ChkgRjYlhzOjoNhH-53" value="i=row of Array -1" style="rhombus;whiteSpace=wrap;html=1;" vertex="1" parent="1">
          <mxGeometry x="605" y="1170" width="110" height="120" as="geometry" />
        </mxCell>
        <mxCell id="YW37ChkgRjYlhzOjoNhH-56" value="Array[i][0],Array[i][col-1]" style="whiteSpace=wrap;html=1;" vertex="1" parent="1">
          <mxGeometry x="310" y="1200" width="170" height="60" as="geometry" />
        </mxCell>
        <mxCell id="YW37ChkgRjYlhzOjoNhH-60" style="edgeStyle=orthogonalEdgeStyle;rounded=0;orthogonalLoop=1;jettySize=auto;html=1;entryX=0.5;entryY=0;entryDx=0;entryDy=0;" edge="1" parent="1" source="YW37ChkgRjYlhzOjoNhH-58" target="YW37ChkgRjYlhzOjoNhH-49">
          <mxGeometry relative="1" as="geometry">
            <Array as="points">
              <mxPoint x="820" y="960" />
              <mxPoint x="300" y="960" />
            </Array>
          </mxGeometry>
        </mxCell>
        <mxCell id="YW37ChkgRjYlhzOjoNhH-58" value="Array[i][j]" style="whiteSpace=wrap;html=1;" vertex="1" parent="1">
          <mxGeometry x="760" y="1020" width="120" height="60" as="geometry" />
        </mxCell>
        <mxCell id="YW37ChkgRjYlhzOjoNhH-61" value="Array[i][j]" style="whiteSpace=wrap;html=1;" vertex="1" parent="1">
          <mxGeometry x="760" y="1200" width="120" height="60" as="geometry" />
        </mxCell>
        <mxCell id="YW37ChkgRjYlhzOjoNhH-64" value="" style="endArrow=none;html=1;rounded=0;" edge="1" parent="1">
          <mxGeometry width="50" height="50" relative="1" as="geometry">
            <mxPoint x="880" y="1230" as="sourcePoint" />
            <mxPoint x="820" y="960" as="targetPoint" />
            <Array as="points">
              <mxPoint x="920" y="1230" />
              <mxPoint x="920" y="960" />
            </Array>
          </mxGeometry>
        </mxCell>
        <mxCell id="YW37ChkgRjYlhzOjoNhH-78" value="" style="edgeStyle=orthogonalEdgeStyle;rounded=0;orthogonalLoop=1;jettySize=auto;html=1;" edge="1" parent="1" source="YW37ChkgRjYlhzOjoNhH-69" target="YW37ChkgRjYlhzOjoNhH-77">
          <mxGeometry relative="1" as="geometry" />
        </mxCell>
        <mxCell id="YW37ChkgRjYlhzOjoNhH-69" value="choice = 5" style="rhombus;whiteSpace=wrap;html=1;" vertex="1" parent="1">
          <mxGeometry x="100" y="1360" width="80" height="80" as="geometry" />
        </mxCell>
        <mxCell id="YW37ChkgRjYlhzOjoNhH-71" value="" style="edgeStyle=orthogonalEdgeStyle;rounded=0;orthogonalLoop=1;jettySize=auto;html=1;" edge="1" parent="1" target="YW37ChkgRjYlhzOjoNhH-72">
          <mxGeometry relative="1" as="geometry">
            <mxPoint x="180" y="1400" as="sourcePoint" />
            <Array as="points">
              <mxPoint x="190" y="1400" />
              <mxPoint x="190" y="1400" />
            </Array>
          </mxGeometry>
        </mxCell>
        <mxCell id="YW37ChkgRjYlhzOjoNhH-74" value="" style="edgeStyle=orthogonalEdgeStyle;rounded=0;orthogonalLoop=1;jettySize=auto;html=1;" edge="1" parent="1" source="YW37ChkgRjYlhzOjoNhH-72" target="YW37ChkgRjYlhzOjoNhH-73">
          <mxGeometry relative="1" as="geometry" />
        </mxCell>
        <mxCell id="YW37ChkgRjYlhzOjoNhH-72" value="i+1,i &amp;lt; row of Array" style="whiteSpace=wrap;html=1;" vertex="1" parent="1">
          <mxGeometry x="240" y="1370" width="120" height="60" as="geometry" />
        </mxCell>
        <mxCell id="YW37ChkgRjYlhzOjoNhH-73" value="Array[i][i]" style="whiteSpace=wrap;html=1;" vertex="1" parent="1">
          <mxGeometry x="440" y="1370" width="120" height="60" as="geometry" />
        </mxCell>
        <mxCell id="YW37ChkgRjYlhzOjoNhH-75" value="" style="endArrow=classic;html=1;rounded=0;exitX=0.5;exitY=0;exitDx=0;exitDy=0;" edge="1" parent="1" source="YW37ChkgRjYlhzOjoNhH-73">
          <mxGeometry width="50" height="50" relative="1" as="geometry">
            <mxPoint x="250" y="1420" as="sourcePoint" />
            <mxPoint x="300" y="1370" as="targetPoint" />
            <Array as="points">
              <mxPoint x="500" y="1350" />
              <mxPoint x="300" y="1350" />
            </Array>
          </mxGeometry>
        </mxCell>
        <mxCell id="uurPQJ2I4AdjC7lXjVcu-17" style="edgeStyle=orthogonalEdgeStyle;rounded=0;orthogonalLoop=1;jettySize=auto;html=1;" edge="1" parent="1" source="YW37ChkgRjYlhzOjoNhH-77" target="uurPQJ2I4AdjC7lXjVcu-2">
          <mxGeometry relative="1" as="geometry" />
        </mxCell>
        <mxCell id="uurPQJ2I4AdjC7lXjVcu-21" value="" style="edgeStyle=orthogonalEdgeStyle;rounded=0;orthogonalLoop=1;jettySize=auto;html=1;" edge="1" parent="1" source="YW37ChkgRjYlhzOjoNhH-77" target="uurPQJ2I4AdjC7lXjVcu-20">
          <mxGeometry relative="1" as="geometry" />
        </mxCell>
        <mxCell id="YW37ChkgRjYlhzOjoNhH-77" value="choice = 6" style="rhombus;whiteSpace=wrap;html=1;" vertex="1" parent="1">
          <mxGeometry x="90" y="1630" width="80" height="80" as="geometry" />
        </mxCell>
        <mxCell id="uurPQJ2I4AdjC7lXjVcu-1" value="" style="edgeStyle=orthogonalEdgeStyle;rounded=0;orthogonalLoop=1;jettySize=auto;html=1;" edge="1" parent="1" source="uurPQJ2I4AdjC7lXjVcu-2" target="uurPQJ2I4AdjC7lXjVcu-4">
          <mxGeometry relative="1" as="geometry" />
        </mxCell>
        <mxCell id="uurPQJ2I4AdjC7lXjVcu-2" value="i+1,i&amp;lt;row của Array" style="rounded=0;whiteSpace=wrap;html=1;" vertex="1" parent="1">
          <mxGeometry x="270" y="1639.51" width="120" height="60" as="geometry" />
        </mxCell>
        <mxCell id="uurPQJ2I4AdjC7lXjVcu-3" value="" style="edgeStyle=orthogonalEdgeStyle;rounded=0;orthogonalLoop=1;jettySize=auto;html=1;entryX=0;entryY=0.5;entryDx=0;entryDy=0;" edge="1" parent="1" source="uurPQJ2I4AdjC7lXjVcu-4" target="uurPQJ2I4AdjC7lXjVcu-7">
          <mxGeometry relative="1" as="geometry">
            <mxPoint x="920" y="1669.51" as="targetPoint" />
          </mxGeometry>
        </mxCell>
        <mxCell id="uurPQJ2I4AdjC7lXjVcu-4" value="k+1,k&amp;lt;=Array[i][i]" style="whiteSpace=wrap;html=1;rounded=0;" vertex="1" parent="1">
          <mxGeometry x="730" y="1639.51" width="120" height="60" as="geometry" />
        </mxCell>
        <mxCell id="uurPQJ2I4AdjC7lXjVcu-5" value="" style="edgeStyle=orthogonalEdgeStyle;rounded=0;orthogonalLoop=1;jettySize=auto;html=1;" edge="1" parent="1">
          <mxGeometry relative="1" as="geometry">
            <mxPoint x="1000" y="1669.01" as="sourcePoint" />
            <mxPoint x="1100" y="1669.01" as="targetPoint" />
          </mxGeometry>
        </mxCell>
        <mxCell id="uurPQJ2I4AdjC7lXjVcu-6" value="true" style="edgeLabel;html=1;align=center;verticalAlign=middle;resizable=0;points=[];" vertex="1" connectable="0" parent="uurPQJ2I4AdjC7lXjVcu-5">
          <mxGeometry x="-0.14" relative="1" as="geometry">
            <mxPoint as="offset" />
          </mxGeometry>
        </mxCell>
        <mxCell id="uurPQJ2I4AdjC7lXjVcu-7" value="Array[i][i] chia hết k" style="rhombus;whiteSpace=wrap;html=1;" vertex="1" parent="1">
          <mxGeometry x="910" y="1619.27" width="100" height="100.49" as="geometry" />
        </mxCell>
        <mxCell id="uurPQJ2I4AdjC7lXjVcu-8" style="edgeStyle=orthogonalEdgeStyle;rounded=0;orthogonalLoop=1;jettySize=auto;html=1;" edge="1" parent="1" source="uurPQJ2I4AdjC7lXjVcu-10" target="uurPQJ2I4AdjC7lXjVcu-13">
          <mxGeometry relative="1" as="geometry" />
        </mxCell>
        <mxCell id="uurPQJ2I4AdjC7lXjVcu-9" style="edgeStyle=orthogonalEdgeStyle;rounded=0;orthogonalLoop=1;jettySize=auto;html=1;entryX=0.5;entryY=1;entryDx=0;entryDy=0;" edge="1" parent="1" target="uurPQJ2I4AdjC7lXjVcu-4">
          <mxGeometry relative="1" as="geometry">
            <mxPoint x="1160" y="1699.51" as="sourcePoint" />
            <mxPoint x="850" y="1719.51" as="targetPoint" />
            <Array as="points">
              <mxPoint x="1160" y="1829.51" />
              <mxPoint x="790" y="1829.51" />
            </Array>
          </mxGeometry>
        </mxCell>
        <mxCell id="uurPQJ2I4AdjC7lXjVcu-10" value="a+1" style="rounded=0;whiteSpace=wrap;html=1;" vertex="1" parent="1">
          <mxGeometry x="1100" y="1639.51" width="120" height="60" as="geometry" />
        </mxCell>
        <mxCell id="uurPQJ2I4AdjC7lXjVcu-11" value="" style="edgeStyle=orthogonalEdgeStyle;rounded=0;orthogonalLoop=1;jettySize=auto;html=1;" edge="1" parent="1">
          <mxGeometry relative="1" as="geometry">
            <mxPoint x="640" y="1530" as="targetPoint" />
            <mxPoint x="1365" y="1630" as="sourcePoint" />
            <Array as="points">
              <mxPoint x="1365" y="1531" />
              <mxPoint x="865" y="1531" />
              <mxPoint x="865" y="1520" />
            </Array>
          </mxGeometry>
        </mxCell>
        <mxCell id="uurPQJ2I4AdjC7lXjVcu-12" value="true" style="edgeLabel;html=1;align=center;verticalAlign=middle;resizable=0;points=[];" vertex="1" connectable="0" parent="uurPQJ2I4AdjC7lXjVcu-11">
          <mxGeometry x="0.0963" y="-1" relative="1" as="geometry">
            <mxPoint as="offset" />
          </mxGeometry>
        </mxCell>
        <mxCell id="uurPQJ2I4AdjC7lXjVcu-13" value="a=2" style="rhombus;whiteSpace=wrap;html=1;" vertex="1" parent="1">
          <mxGeometry x="1320" y="1630" width="90" height="90" as="geometry" />
        </mxCell>
        <mxCell id="uurPQJ2I4AdjC7lXjVcu-15" value="" style="endArrow=classic;html=1;rounded=0;exitX=0.5;exitY=0;exitDx=0;exitDy=0;" edge="1" parent="1" source="uurPQJ2I4AdjC7lXjVcu-7">
          <mxGeometry width="50" height="50" relative="1" as="geometry">
            <mxPoint x="740" y="1689.51" as="sourcePoint" />
            <mxPoint x="790" y="1639.51" as="targetPoint" />
            <Array as="points">
              <mxPoint x="960" y="1589.51" />
              <mxPoint x="790" y="1589.51" />
            </Array>
          </mxGeometry>
        </mxCell>
        <mxCell id="uurPQJ2I4AdjC7lXjVcu-16" value="false" style="edgeLabel;html=1;align=center;verticalAlign=middle;resizable=0;points=[];" vertex="1" connectable="0" parent="uurPQJ2I4AdjC7lXjVcu-15">
          <mxGeometry x="-0.0795" y="-4" relative="1" as="geometry">
            <mxPoint as="offset" />
          </mxGeometry>
        </mxCell>
        <mxCell id="uurPQJ2I4AdjC7lXjVcu-18" value="j+1,j&amp;lt;col of Array" style="rounded=0;whiteSpace=wrap;html=1;" vertex="1" parent="1">
          <mxGeometry x="500" y="1640" width="120" height="60" as="geometry" />
        </mxCell>
        <mxCell id="uurPQJ2I4AdjC7lXjVcu-19" value="Array[i][j] là số nguyên tố" style="rounded=0;whiteSpace=wrap;html=1;" vertex="1" parent="1">
          <mxGeometry x="425" y="1500" width="230" height="60" as="geometry" />
        </mxCell>
        <mxCell id="uurPQJ2I4AdjC7lXjVcu-23" value="" style="edgeStyle=orthogonalEdgeStyle;rounded=0;orthogonalLoop=1;jettySize=auto;html=1;" edge="1" parent="1" source="uurPQJ2I4AdjC7lXjVcu-20" target="uurPQJ2I4AdjC7lXjVcu-22">
          <mxGeometry relative="1" as="geometry" />
        </mxCell>
        <mxCell id="uurPQJ2I4AdjC7lXjVcu-20" value="choice =7" style="rhombus;whiteSpace=wrap;html=1;" vertex="1" parent="1">
          <mxGeometry x="90" y="1900" width="80" height="80" as="geometry" />
        </mxCell>
        <mxCell id="uurPQJ2I4AdjC7lXjVcu-25" style="edgeStyle=orthogonalEdgeStyle;rounded=0;orthogonalLoop=1;jettySize=auto;html=1;" edge="1" parent="1" source="uurPQJ2I4AdjC7lXjVcu-22" target="uurPQJ2I4AdjC7lXjVcu-24">
          <mxGeometry relative="1" as="geometry" />
        </mxCell>
        <mxCell id="uurPQJ2I4AdjC7lXjVcu-22" value="Exit" style="whiteSpace=wrap;html=1;" vertex="1" parent="1">
          <mxGeometry x="330" y="1910" width="120" height="60" as="geometry" />
        </mxCell>
        <mxCell id="uurPQJ2I4AdjC7lXjVcu-24" value="End" style="ellipse;whiteSpace=wrap;html=1;" vertex="1" parent="1">
          <mxGeometry x="1480" y="1900" width="120" height="80" as="geometry" />
        </mxCell>
        <mxCell id="uurPQJ2I4AdjC7lXjVcu-27" value="" style="endArrow=none;html=1;rounded=0;" edge="1" parent="1">
          <mxGeometry width="50" height="50" relative="1" as="geometry">
            <mxPoint x="760" y="510" as="sourcePoint" />
            <mxPoint x="1530" y="510" as="targetPoint" />
          </mxGeometry>
        </mxCell>
        <mxCell id="uurPQJ2I4AdjC7lXjVcu-28" value="" style="endArrow=none;html=1;rounded=0;" edge="1" parent="1">
          <mxGeometry width="50" height="50" relative="1" as="geometry">
            <mxPoint x="570" y="670" as="sourcePoint" />
            <mxPoint x="1540" y="670" as="targetPoint" />
          </mxGeometry>
        </mxCell>
        <mxCell id="uurPQJ2I4AdjC7lXjVcu-29" value="" style="endArrow=none;html=1;rounded=0;" edge="1" parent="1">
          <mxGeometry width="50" height="50" relative="1" as="geometry">
            <mxPoint x="700" y="830" as="sourcePoint" />
            <mxPoint x="1540" y="830" as="targetPoint" />
          </mxGeometry>
        </mxCell>
        <mxCell id="uurPQJ2I4AdjC7lXjVcu-30" value="" style="endArrow=none;html=1;rounded=0;" edge="1" parent="1">
          <mxGeometry width="50" height="50" relative="1" as="geometry">
            <mxPoint x="1530" y="1330" as="sourcePoint" />
            <mxPoint x="310" y="1230" as="targetPoint" />
            <Array as="points">
              <mxPoint x="230" y="1330" />
              <mxPoint x="230" y="1230" />
            </Array>
          </mxGeometry>
        </mxCell>
        <mxCell id="uurPQJ2I4AdjC7lXjVcu-31" value="" style="endArrow=none;html=1;rounded=0;" edge="1" parent="1">
          <mxGeometry width="50" height="50" relative="1" as="geometry">
            <mxPoint x="560" y="1400" as="sourcePoint" />
            <mxPoint x="1540" y="1400" as="targetPoint" />
          </mxGeometry>
        </mxCell>
        <mxCell id="uurPQJ2I4AdjC7lXjVcu-32" value="" style="endArrow=none;html=1;rounded=0;exitX=1;exitY=0.5;exitDx=0;exitDy=0;" edge="1" parent="1" source="uurPQJ2I4AdjC7lXjVcu-13">
          <mxGeometry width="50" height="50" relative="1" as="geometry">
            <mxPoint x="1410" y="1680" as="sourcePoint" />
            <mxPoint x="1540" y="1675" as="targetPoint" />
          </mxGeometry>
        </mxCell>
        <mxCell id="edbcC7n44iYF4WqJxz-S-1" value="Array[i][j]" style="shape=parallelogram;perimeter=parallelogramPerimeter;whiteSpace=wrap;html=1;fixedSize=1;" vertex="1" parent="1">
          <mxGeometry x="640" y="320" width="120" height="60" as="geometry" />
        </mxCell>
      </root>
    </mxGraphModel>
  </diagram>
  <diagram id="6pUwhnArWabfX8w5OKzS" name="Page-6">
    <mxGraphModel dx="2933" dy="1910" grid="1" gridSize="10" guides="1" tooltips="1" connect="1" arrows="1" fold="1" page="1" pageScale="1" pageWidth="850" pageHeight="1100" math="0" shadow="0">
      <root>
        <mxCell id="0" />
        <mxCell id="1" parent="0" />
        <mxCell id="AJh22UM75q0QhH7v-cCu-3" style="edgeStyle=orthogonalEdgeStyle;rounded=0;orthogonalLoop=1;jettySize=auto;html=1;entryX=0.5;entryY=0;entryDx=0;entryDy=0;" edge="1" parent="1" source="AJh22UM75q0QhH7v-cCu-1" target="AJh22UM75q0QhH7v-cCu-2">
          <mxGeometry relative="1" as="geometry" />
        </mxCell>
        <mxCell id="AJh22UM75q0QhH7v-cCu-1" value="Start" style="ellipse;whiteSpace=wrap;html=1;" vertex="1" parent="1">
          <mxGeometry x="60" y="70" width="120" height="80" as="geometry" />
        </mxCell>
        <mxCell id="AJh22UM75q0QhH7v-cCu-5" value="" style="edgeStyle=orthogonalEdgeStyle;rounded=0;orthogonalLoop=1;jettySize=auto;html=1;" edge="1" parent="1" source="AJh22UM75q0QhH7v-cCu-2" target="AJh22UM75q0QhH7v-cCu-4">
          <mxGeometry relative="1" as="geometry" />
        </mxCell>
        <mxCell id="AJh22UM75q0QhH7v-cCu-2" value="i,Array,choice,index,number,temp,left=0,right=size of Array-1,mid=(left+right)/2,find" style="rounded=0;whiteSpace=wrap;html=1;" vertex="1" parent="1">
          <mxGeometry x="20" y="230" width="460" height="60" as="geometry" />
        </mxCell>
        <mxCell id="HxUA_yf4SmrXpNwXKXQ1-2" style="edgeStyle=orthogonalEdgeStyle;rounded=0;orthogonalLoop=1;jettySize=auto;html=1;entryX=0;entryY=0.5;entryDx=0;entryDy=0;" edge="1" parent="1" source="AJh22UM75q0QhH7v-cCu-4" target="HxUA_yf4SmrXpNwXKXQ1-1">
          <mxGeometry relative="1" as="geometry" />
        </mxCell>
        <mxCell id="HxUA_yf4SmrXpNwXKXQ1-7" value="" style="edgeStyle=orthogonalEdgeStyle;rounded=0;orthogonalLoop=1;jettySize=auto;html=1;" edge="1" parent="1" source="AJh22UM75q0QhH7v-cCu-4" target="HxUA_yf4SmrXpNwXKXQ1-6">
          <mxGeometry relative="1" as="geometry" />
        </mxCell>
        <mxCell id="AJh22UM75q0QhH7v-cCu-4" value="choice =1" style="rhombus;whiteSpace=wrap;html=1;rounded=0;" vertex="1" parent="1">
          <mxGeometry x="80" y="360" width="80" height="80" as="geometry" />
        </mxCell>
        <mxCell id="HxUA_yf4SmrXpNwXKXQ1-4" style="edgeStyle=orthogonalEdgeStyle;rounded=0;orthogonalLoop=1;jettySize=auto;html=1;entryX=0;entryY=0.5;entryDx=0;entryDy=0;" edge="1" parent="1" source="HxUA_yf4SmrXpNwXKXQ1-1" target="HxUA_yf4SmrXpNwXKXQ1-3">
          <mxGeometry relative="1" as="geometry" />
        </mxCell>
        <mxCell id="HxUA_yf4SmrXpNwXKXQ1-1" value="i+1,i&amp;lt;size of Array" style="rounded=0;whiteSpace=wrap;html=1;" vertex="1" parent="1">
          <mxGeometry x="230" y="370" width="120" height="60" as="geometry" />
        </mxCell>
        <mxCell id="HxUA_yf4SmrXpNwXKXQ1-5" style="edgeStyle=orthogonalEdgeStyle;rounded=0;orthogonalLoop=1;jettySize=auto;html=1;entryX=0.5;entryY=0;entryDx=0;entryDy=0;" edge="1" parent="1" source="HxUA_yf4SmrXpNwXKXQ1-3" target="HxUA_yf4SmrXpNwXKXQ1-1">
          <mxGeometry relative="1" as="geometry">
            <Array as="points">
              <mxPoint x="470" y="350" />
              <mxPoint x="290" y="350" />
            </Array>
          </mxGeometry>
        </mxCell>
        <mxCell id="HxUA_yf4SmrXpNwXKXQ1-3" value="Array[i]" style="shape=parallelogram;perimeter=parallelogramPerimeter;whiteSpace=wrap;html=1;fixedSize=1;" vertex="1" parent="1">
          <mxGeometry x="410" y="370" width="120" height="60" as="geometry" />
        </mxCell>
        <mxCell id="HxUA_yf4SmrXpNwXKXQ1-15" value="" style="edgeStyle=orthogonalEdgeStyle;rounded=0;orthogonalLoop=1;jettySize=auto;html=1;" edge="1" parent="1" source="HxUA_yf4SmrXpNwXKXQ1-6" target="HxUA_yf4SmrXpNwXKXQ1-14">
          <mxGeometry relative="1" as="geometry" />
        </mxCell>
        <mxCell id="HxUA_yf4SmrXpNwXKXQ1-6" value="choice =2" style="rhombus;whiteSpace=wrap;html=1;rounded=0;" vertex="1" parent="1">
          <mxGeometry x="80" y="520" width="80" height="80" as="geometry" />
        </mxCell>
        <mxCell id="HxUA_yf4SmrXpNwXKXQ1-8" style="edgeStyle=orthogonalEdgeStyle;rounded=0;orthogonalLoop=1;jettySize=auto;html=1;entryX=0;entryY=0.5;entryDx=0;entryDy=0;" edge="1" parent="1" target="HxUA_yf4SmrXpNwXKXQ1-10">
          <mxGeometry relative="1" as="geometry">
            <mxPoint x="160" y="560" as="sourcePoint" />
          </mxGeometry>
        </mxCell>
        <mxCell id="HxUA_yf4SmrXpNwXKXQ1-9" style="edgeStyle=orthogonalEdgeStyle;rounded=0;orthogonalLoop=1;jettySize=auto;html=1;entryX=0;entryY=0.5;entryDx=0;entryDy=0;" edge="1" parent="1" source="HxUA_yf4SmrXpNwXKXQ1-10">
          <mxGeometry relative="1" as="geometry">
            <mxPoint x="420" y="560" as="targetPoint" />
          </mxGeometry>
        </mxCell>
        <mxCell id="HxUA_yf4SmrXpNwXKXQ1-10" value="i+1,i&amp;lt;size of Array" style="rounded=0;whiteSpace=wrap;html=1;" vertex="1" parent="1">
          <mxGeometry x="230" y="530" width="120" height="60" as="geometry" />
        </mxCell>
        <mxCell id="HxUA_yf4SmrXpNwXKXQ1-11" style="edgeStyle=orthogonalEdgeStyle;rounded=0;orthogonalLoop=1;jettySize=auto;html=1;entryX=0.5;entryY=0;entryDx=0;entryDy=0;" edge="1" parent="1" target="HxUA_yf4SmrXpNwXKXQ1-10">
          <mxGeometry relative="1" as="geometry">
            <Array as="points">
              <mxPoint x="470" y="510" />
              <mxPoint x="290" y="510" />
            </Array>
            <mxPoint x="470" y="530" as="sourcePoint" />
          </mxGeometry>
        </mxCell>
        <mxCell id="HxUA_yf4SmrXpNwXKXQ1-13" value="Array[i]" style="rounded=0;whiteSpace=wrap;html=1;" vertex="1" parent="1">
          <mxGeometry x="420" y="530" width="120" height="60" as="geometry" />
        </mxCell>
        <mxCell id="HxUA_yf4SmrXpNwXKXQ1-18" style="edgeStyle=orthogonalEdgeStyle;rounded=0;orthogonalLoop=1;jettySize=auto;html=1;" edge="1" parent="1" source="HxUA_yf4SmrXpNwXKXQ1-14" target="HxUA_yf4SmrXpNwXKXQ1-17">
          <mxGeometry relative="1" as="geometry" />
        </mxCell>
        <mxCell id="HxUA_yf4SmrXpNwXKXQ1-26" value="" style="edgeStyle=orthogonalEdgeStyle;rounded=0;orthogonalLoop=1;jettySize=auto;html=1;" edge="1" parent="1" source="HxUA_yf4SmrXpNwXKXQ1-14" target="HxUA_yf4SmrXpNwXKXQ1-25">
          <mxGeometry relative="1" as="geometry" />
        </mxCell>
        <mxCell id="HxUA_yf4SmrXpNwXKXQ1-14" value="choice =3" style="rhombus;whiteSpace=wrap;html=1;rounded=0;" vertex="1" parent="1">
          <mxGeometry x="80" y="680" width="80" height="80" as="geometry" />
        </mxCell>
        <mxCell id="HxUA_yf4SmrXpNwXKXQ1-20" value="" style="edgeStyle=orthogonalEdgeStyle;rounded=0;orthogonalLoop=1;jettySize=auto;html=1;" edge="1" parent="1" source="HxUA_yf4SmrXpNwXKXQ1-17" target="HxUA_yf4SmrXpNwXKXQ1-19">
          <mxGeometry relative="1" as="geometry" />
        </mxCell>
        <mxCell id="HxUA_yf4SmrXpNwXKXQ1-17" value="number,index" style="shape=parallelogram;perimeter=parallelogramPerimeter;whiteSpace=wrap;html=1;fixedSize=1;" vertex="1" parent="1">
          <mxGeometry x="220" y="690" width="120" height="60" as="geometry" />
        </mxCell>
        <mxCell id="HxUA_yf4SmrXpNwXKXQ1-22" value="" style="edgeStyle=orthogonalEdgeStyle;rounded=0;orthogonalLoop=1;jettySize=auto;html=1;" edge="1" parent="1" source="HxUA_yf4SmrXpNwXKXQ1-19" target="HxUA_yf4SmrXpNwXKXQ1-21">
          <mxGeometry relative="1" as="geometry" />
        </mxCell>
        <mxCell id="HxUA_yf4SmrXpNwXKXQ1-19" value="i-1,i=size of Array,i&amp;gt;index" style="whiteSpace=wrap;html=1;" vertex="1" parent="1">
          <mxGeometry x="420" y="690" width="120" height="60" as="geometry" />
        </mxCell>
        <mxCell id="HxUA_yf4SmrXpNwXKXQ1-24" value="" style="edgeStyle=orthogonalEdgeStyle;rounded=0;orthogonalLoop=1;jettySize=auto;html=1;" edge="1" parent="1" source="HxUA_yf4SmrXpNwXKXQ1-21" target="HxUA_yf4SmrXpNwXKXQ1-23">
          <mxGeometry relative="1" as="geometry" />
        </mxCell>
        <mxCell id="HxUA_yf4SmrXpNwXKXQ1-21" value="Array[i]=Array[i-1]" style="whiteSpace=wrap;html=1;" vertex="1" parent="1">
          <mxGeometry x="620" y="690" width="120" height="60" as="geometry" />
        </mxCell>
        <mxCell id="HxUA_yf4SmrXpNwXKXQ1-23" value="Array[index]=number" style="whiteSpace=wrap;html=1;" vertex="1" parent="1">
          <mxGeometry x="820" y="690" width="120" height="60" as="geometry" />
        </mxCell>
        <mxCell id="HxUA_yf4SmrXpNwXKXQ1-28" style="edgeStyle=orthogonalEdgeStyle;rounded=0;orthogonalLoop=1;jettySize=auto;html=1;entryX=0;entryY=0.5;entryDx=0;entryDy=0;" edge="1" parent="1" source="HxUA_yf4SmrXpNwXKXQ1-25" target="HxUA_yf4SmrXpNwXKXQ1-27">
          <mxGeometry relative="1" as="geometry" />
        </mxCell>
        <mxCell id="HxUA_yf4SmrXpNwXKXQ1-32" value="" style="edgeStyle=orthogonalEdgeStyle;rounded=0;orthogonalLoop=1;jettySize=auto;html=1;" edge="1" parent="1" source="HxUA_yf4SmrXpNwXKXQ1-25" target="HxUA_yf4SmrXpNwXKXQ1-31">
          <mxGeometry relative="1" as="geometry" />
        </mxCell>
        <mxCell id="HxUA_yf4SmrXpNwXKXQ1-25" value="choice =4" style="rhombus;whiteSpace=wrap;html=1;rounded=0;" vertex="1" parent="1">
          <mxGeometry x="80" y="840" width="80" height="80" as="geometry" />
        </mxCell>
        <mxCell id="HxUA_yf4SmrXpNwXKXQ1-30" value="" style="edgeStyle=orthogonalEdgeStyle;rounded=0;orthogonalLoop=1;jettySize=auto;html=1;" edge="1" parent="1" source="HxUA_yf4SmrXpNwXKXQ1-27" target="HxUA_yf4SmrXpNwXKXQ1-29">
          <mxGeometry relative="1" as="geometry" />
        </mxCell>
        <mxCell id="HxUA_yf4SmrXpNwXKXQ1-27" value="number,index" style="shape=parallelogram;perimeter=parallelogramPerimeter;whiteSpace=wrap;html=1;fixedSize=1;" vertex="1" parent="1">
          <mxGeometry x="220" y="850" width="120" height="60" as="geometry" />
        </mxCell>
        <mxCell id="HxUA_yf4SmrXpNwXKXQ1-29" value="Array[index]=number" style="whiteSpace=wrap;html=1;" vertex="1" parent="1">
          <mxGeometry x="420" y="850" width="120" height="60" as="geometry" />
        </mxCell>
        <mxCell id="HxUA_yf4SmrXpNwXKXQ1-34" style="edgeStyle=orthogonalEdgeStyle;rounded=0;orthogonalLoop=1;jettySize=auto;html=1;entryX=0;entryY=0.5;entryDx=0;entryDy=0;" edge="1" parent="1" source="HxUA_yf4SmrXpNwXKXQ1-31" target="HxUA_yf4SmrXpNwXKXQ1-33">
          <mxGeometry relative="1" as="geometry" />
        </mxCell>
        <mxCell id="HxUA_yf4SmrXpNwXKXQ1-42" value="" style="edgeStyle=orthogonalEdgeStyle;rounded=0;orthogonalLoop=1;jettySize=auto;html=1;" edge="1" parent="1" source="HxUA_yf4SmrXpNwXKXQ1-31" target="HxUA_yf4SmrXpNwXKXQ1-41">
          <mxGeometry relative="1" as="geometry" />
        </mxCell>
        <mxCell id="HxUA_yf4SmrXpNwXKXQ1-31" value="choice =5" style="rhombus;whiteSpace=wrap;html=1;rounded=0;" vertex="1" parent="1">
          <mxGeometry x="80" y="1000" width="80" height="80" as="geometry" />
        </mxCell>
        <mxCell id="HxUA_yf4SmrXpNwXKXQ1-35" style="edgeStyle=orthogonalEdgeStyle;rounded=0;orthogonalLoop=1;jettySize=auto;html=1;" edge="1" parent="1" source="HxUA_yf4SmrXpNwXKXQ1-33">
          <mxGeometry relative="1" as="geometry">
            <mxPoint x="420" y="1040" as="targetPoint" />
          </mxGeometry>
        </mxCell>
        <mxCell id="HxUA_yf4SmrXpNwXKXQ1-33" value="number,index" style="shape=parallelogram;perimeter=parallelogramPerimeter;whiteSpace=wrap;html=1;fixedSize=1;" vertex="1" parent="1">
          <mxGeometry x="220" y="1010" width="120" height="60" as="geometry" />
        </mxCell>
        <mxCell id="HxUA_yf4SmrXpNwXKXQ1-38" value="" style="edgeStyle=orthogonalEdgeStyle;rounded=0;orthogonalLoop=1;jettySize=auto;html=1;" edge="1" parent="1" source="HxUA_yf4SmrXpNwXKXQ1-36" target="HxUA_yf4SmrXpNwXKXQ1-37">
          <mxGeometry relative="1" as="geometry" />
        </mxCell>
        <mxCell id="HxUA_yf4SmrXpNwXKXQ1-36" value="i=index,i+1,i&amp;lt;size of Array" style="rounded=0;whiteSpace=wrap;html=1;" vertex="1" parent="1">
          <mxGeometry x="425" y="1010" width="120" height="60" as="geometry" />
        </mxCell>
        <mxCell id="HxUA_yf4SmrXpNwXKXQ1-37" value="Array[i]=Array[i+1]" style="whiteSpace=wrap;html=1;rounded=0;" vertex="1" parent="1">
          <mxGeometry x="625" y="1010" width="120" height="60" as="geometry" />
        </mxCell>
        <mxCell id="HxUA_yf4SmrXpNwXKXQ1-44" value="" style="edgeStyle=orthogonalEdgeStyle;rounded=0;orthogonalLoop=1;jettySize=auto;html=1;" edge="1" parent="1" source="HxUA_yf4SmrXpNwXKXQ1-41" target="HxUA_yf4SmrXpNwXKXQ1-43">
          <mxGeometry relative="1" as="geometry" />
        </mxCell>
        <mxCell id="HxUA_yf4SmrXpNwXKXQ1-63" value="true" style="edgeLabel;html=1;align=center;verticalAlign=middle;resizable=0;points=[];" vertex="1" connectable="0" parent="HxUA_yf4SmrXpNwXKXQ1-44">
          <mxGeometry x="-0.025" y="-3" relative="1" as="geometry">
            <mxPoint as="offset" />
          </mxGeometry>
        </mxCell>
        <mxCell id="HxUA_yf4SmrXpNwXKXQ1-69" value="" style="edgeStyle=orthogonalEdgeStyle;rounded=0;orthogonalLoop=1;jettySize=auto;html=1;" edge="1" parent="1" source="HxUA_yf4SmrXpNwXKXQ1-41" target="HxUA_yf4SmrXpNwXKXQ1-68">
          <mxGeometry relative="1" as="geometry" />
        </mxCell>
        <mxCell id="HxUA_yf4SmrXpNwXKXQ1-41" value="choice =6" style="rhombus;whiteSpace=wrap;html=1;rounded=0;" vertex="1" parent="1">
          <mxGeometry x="80" y="1160" width="80" height="80" as="geometry" />
        </mxCell>
        <mxCell id="HxUA_yf4SmrXpNwXKXQ1-46" value="" style="edgeStyle=orthogonalEdgeStyle;rounded=0;orthogonalLoop=1;jettySize=auto;html=1;" edge="1" parent="1" source="HxUA_yf4SmrXpNwXKXQ1-43" target="HxUA_yf4SmrXpNwXKXQ1-45">
          <mxGeometry relative="1" as="geometry" />
        </mxCell>
        <mxCell id="HxUA_yf4SmrXpNwXKXQ1-66" value="false" style="edgeLabel;html=1;align=center;verticalAlign=middle;resizable=0;points=[];" vertex="1" connectable="0" parent="HxUA_yf4SmrXpNwXKXQ1-46">
          <mxGeometry y="1" relative="1" as="geometry">
            <mxPoint as="offset" />
          </mxGeometry>
        </mxCell>
        <mxCell id="HxUA_yf4SmrXpNwXKXQ1-48" value="" style="edgeStyle=orthogonalEdgeStyle;rounded=0;orthogonalLoop=1;jettySize=auto;html=1;" edge="1" parent="1" source="HxUA_yf4SmrXpNwXKXQ1-43" target="HxUA_yf4SmrXpNwXKXQ1-47">
          <mxGeometry relative="1" as="geometry" />
        </mxCell>
        <mxCell id="HxUA_yf4SmrXpNwXKXQ1-64" value="true" style="edgeLabel;html=1;align=center;verticalAlign=middle;resizable=0;points=[];" vertex="1" connectable="0" parent="HxUA_yf4SmrXpNwXKXQ1-48">
          <mxGeometry x="0.1333" y="2" relative="1" as="geometry">
            <mxPoint as="offset" />
          </mxGeometry>
        </mxCell>
        <mxCell id="HxUA_yf4SmrXpNwXKXQ1-43" value="choice =7" style="rhombus;whiteSpace=wrap;html=1;rounded=0;" vertex="1" parent="1">
          <mxGeometry x="240" y="1160" width="80" height="80" as="geometry" />
        </mxCell>
        <mxCell id="HxUA_yf4SmrXpNwXKXQ1-62" style="edgeStyle=orthogonalEdgeStyle;rounded=0;orthogonalLoop=1;jettySize=auto;html=1;entryX=0;entryY=0.5;entryDx=0;entryDy=0;" edge="1" parent="1" source="HxUA_yf4SmrXpNwXKXQ1-45" target="HxUA_yf4SmrXpNwXKXQ1-56">
          <mxGeometry relative="1" as="geometry" />
        </mxCell>
        <mxCell id="HxUA_yf4SmrXpNwXKXQ1-67" value="true" style="edgeLabel;html=1;align=center;verticalAlign=middle;resizable=0;points=[];" vertex="1" connectable="0" parent="HxUA_yf4SmrXpNwXKXQ1-62">
          <mxGeometry x="-0.1667" y="-1" relative="1" as="geometry">
            <mxPoint as="offset" />
          </mxGeometry>
        </mxCell>
        <mxCell id="HxUA_yf4SmrXpNwXKXQ1-45" value="choice =8" style="rhombus;whiteSpace=wrap;html=1;rounded=0;" vertex="1" parent="1">
          <mxGeometry x="240" y="1320" width="80" height="80" as="geometry" />
        </mxCell>
        <mxCell id="HxUA_yf4SmrXpNwXKXQ1-50" value="" style="edgeStyle=orthogonalEdgeStyle;rounded=0;orthogonalLoop=1;jettySize=auto;html=1;" edge="1" parent="1" source="HxUA_yf4SmrXpNwXKXQ1-47" target="HxUA_yf4SmrXpNwXKXQ1-49">
          <mxGeometry relative="1" as="geometry" />
        </mxCell>
        <mxCell id="HxUA_yf4SmrXpNwXKXQ1-47" value="Array[i]&amp;lt;Array[i+1]" style="rhombus;whiteSpace=wrap;html=1;rounded=0;" vertex="1" parent="1">
          <mxGeometry x="400" y="1140" width="110" height="120" as="geometry" />
        </mxCell>
        <mxCell id="HxUA_yf4SmrXpNwXKXQ1-52" value="" style="edgeStyle=orthogonalEdgeStyle;rounded=0;orthogonalLoop=1;jettySize=auto;html=1;" edge="1" parent="1" source="HxUA_yf4SmrXpNwXKXQ1-49" target="HxUA_yf4SmrXpNwXKXQ1-51">
          <mxGeometry relative="1" as="geometry" />
        </mxCell>
        <mxCell id="HxUA_yf4SmrXpNwXKXQ1-49" value="temp=Array[i]" style="whiteSpace=wrap;html=1;rounded=0;" vertex="1" parent="1">
          <mxGeometry x="585" y="1170" width="120" height="60" as="geometry" />
        </mxCell>
        <mxCell id="HxUA_yf4SmrXpNwXKXQ1-54" value="" style="edgeStyle=orthogonalEdgeStyle;rounded=0;orthogonalLoop=1;jettySize=auto;html=1;" edge="1" parent="1" source="HxUA_yf4SmrXpNwXKXQ1-51" target="HxUA_yf4SmrXpNwXKXQ1-53">
          <mxGeometry relative="1" as="geometry" />
        </mxCell>
        <mxCell id="HxUA_yf4SmrXpNwXKXQ1-51" value="Array[i]=Array[i+1]" style="whiteSpace=wrap;html=1;rounded=0;" vertex="1" parent="1">
          <mxGeometry x="785" y="1170" width="120" height="60" as="geometry" />
        </mxCell>
        <mxCell id="HxUA_yf4SmrXpNwXKXQ1-53" value="Array[i+1]=temp" style="whiteSpace=wrap;html=1;rounded=0;" vertex="1" parent="1">
          <mxGeometry x="985" y="1170" width="120" height="60" as="geometry" />
        </mxCell>
        <mxCell id="HxUA_yf4SmrXpNwXKXQ1-55" value="" style="edgeStyle=orthogonalEdgeStyle;rounded=0;orthogonalLoop=1;jettySize=auto;html=1;" edge="1" parent="1" source="HxUA_yf4SmrXpNwXKXQ1-56" target="HxUA_yf4SmrXpNwXKXQ1-58">
          <mxGeometry relative="1" as="geometry" />
        </mxCell>
        <mxCell id="HxUA_yf4SmrXpNwXKXQ1-56" value="Array[i]&amp;lt;Array[i+1]" style="rhombus;whiteSpace=wrap;html=1;rounded=0;" vertex="1" parent="1">
          <mxGeometry x="400" y="1300" width="110" height="120" as="geometry" />
        </mxCell>
        <mxCell id="HxUA_yf4SmrXpNwXKXQ1-57" value="" style="edgeStyle=orthogonalEdgeStyle;rounded=0;orthogonalLoop=1;jettySize=auto;html=1;" edge="1" parent="1" source="HxUA_yf4SmrXpNwXKXQ1-58" target="HxUA_yf4SmrXpNwXKXQ1-60">
          <mxGeometry relative="1" as="geometry" />
        </mxCell>
        <mxCell id="HxUA_yf4SmrXpNwXKXQ1-58" value="temp=Array[i]" style="whiteSpace=wrap;html=1;rounded=0;" vertex="1" parent="1">
          <mxGeometry x="585" y="1330" width="120" height="60" as="geometry" />
        </mxCell>
        <mxCell id="HxUA_yf4SmrXpNwXKXQ1-59" value="" style="edgeStyle=orthogonalEdgeStyle;rounded=0;orthogonalLoop=1;jettySize=auto;html=1;" edge="1" parent="1" source="HxUA_yf4SmrXpNwXKXQ1-60" target="HxUA_yf4SmrXpNwXKXQ1-61">
          <mxGeometry relative="1" as="geometry" />
        </mxCell>
        <mxCell id="HxUA_yf4SmrXpNwXKXQ1-60" value="Array[i]=Array[i+1]" style="whiteSpace=wrap;html=1;rounded=0;" vertex="1" parent="1">
          <mxGeometry x="785" y="1330" width="120" height="60" as="geometry" />
        </mxCell>
        <mxCell id="HxUA_yf4SmrXpNwXKXQ1-61" value="Array[i+1]=temp" style="whiteSpace=wrap;html=1;rounded=0;" vertex="1" parent="1">
          <mxGeometry x="985" y="1330" width="120" height="60" as="geometry" />
        </mxCell>
        <mxCell id="HxUA_yf4SmrXpNwXKXQ1-71" value="" style="edgeStyle=orthogonalEdgeStyle;rounded=0;orthogonalLoop=1;jettySize=auto;html=1;" edge="1" parent="1" source="HxUA_yf4SmrXpNwXKXQ1-68">
          <mxGeometry relative="1" as="geometry">
            <mxPoint x="240" y="1600" as="targetPoint" />
          </mxGeometry>
        </mxCell>
        <mxCell id="HxUA_yf4SmrXpNwXKXQ1-106" value="" style="edgeStyle=orthogonalEdgeStyle;rounded=0;orthogonalLoop=1;jettySize=auto;html=1;" edge="1" parent="1" source="HxUA_yf4SmrXpNwXKXQ1-68" target="HxUA_yf4SmrXpNwXKXQ1-105">
          <mxGeometry relative="1" as="geometry" />
        </mxCell>
        <mxCell id="HxUA_yf4SmrXpNwXKXQ1-68" value="choice =9" style="rhombus;whiteSpace=wrap;html=1;rounded=0;" vertex="1" parent="1">
          <mxGeometry x="80" y="1560" width="80" height="80" as="geometry" />
        </mxCell>
        <mxCell id="HxUA_yf4SmrXpNwXKXQ1-74" value="" style="edgeStyle=orthogonalEdgeStyle;rounded=0;orthogonalLoop=1;jettySize=auto;html=1;" edge="1" parent="1" source="HxUA_yf4SmrXpNwXKXQ1-72" target="HxUA_yf4SmrXpNwXKXQ1-73">
          <mxGeometry relative="1" as="geometry" />
        </mxCell>
        <mxCell id="HxUA_yf4SmrXpNwXKXQ1-72" value="i+1,i&amp;lt;size of Array" style="rounded=0;whiteSpace=wrap;html=1;" vertex="1" parent="1">
          <mxGeometry x="425" y="1570" width="120" height="60" as="geometry" />
        </mxCell>
        <mxCell id="HxUA_yf4SmrXpNwXKXQ1-80" value="" style="edgeStyle=orthogonalEdgeStyle;rounded=0;orthogonalLoop=1;jettySize=auto;html=1;" edge="1" parent="1" source="HxUA_yf4SmrXpNwXKXQ1-73" target="HxUA_yf4SmrXpNwXKXQ1-79">
          <mxGeometry relative="1" as="geometry" />
        </mxCell>
        <mxCell id="HxUA_yf4SmrXpNwXKXQ1-95" value="true" style="edgeLabel;html=1;align=center;verticalAlign=middle;resizable=0;points=[];" vertex="1" connectable="0" parent="HxUA_yf4SmrXpNwXKXQ1-80">
          <mxGeometry x="0.04" y="-2" relative="1" as="geometry">
            <mxPoint as="offset" />
          </mxGeometry>
        </mxCell>
        <mxCell id="HxUA_yf4SmrXpNwXKXQ1-101" value="" style="edgeStyle=orthogonalEdgeStyle;rounded=0;orthogonalLoop=1;jettySize=auto;html=1;" edge="1" parent="1" source="HxUA_yf4SmrXpNwXKXQ1-73">
          <mxGeometry relative="1" as="geometry">
            <mxPoint x="680" y="1800" as="targetPoint" />
          </mxGeometry>
        </mxCell>
        <mxCell id="HxUA_yf4SmrXpNwXKXQ1-73" value="Array[i]&amp;lt;Array[i+1" style="rhombus;whiteSpace=wrap;html=1;rounded=0;" vertex="1" parent="1">
          <mxGeometry x="620" y="1540" width="120" height="120" as="geometry" />
        </mxCell>
        <mxCell id="HxUA_yf4SmrXpNwXKXQ1-78" style="edgeStyle=orthogonalEdgeStyle;rounded=0;orthogonalLoop=1;jettySize=auto;html=1;entryX=0;entryY=0.5;entryDx=0;entryDy=0;" edge="1" parent="1" source="HxUA_yf4SmrXpNwXKXQ1-77" target="HxUA_yf4SmrXpNwXKXQ1-72">
          <mxGeometry relative="1" as="geometry" />
        </mxCell>
        <mxCell id="HxUA_yf4SmrXpNwXKXQ1-77" value="find" style="shape=parallelogram;perimeter=parallelogramPerimeter;whiteSpace=wrap;html=1;fixedSize=1;" vertex="1" parent="1">
          <mxGeometry x="230" y="1570" width="120" height="60" as="geometry" />
        </mxCell>
        <mxCell id="HxUA_yf4SmrXpNwXKXQ1-82" value="" style="edgeStyle=orthogonalEdgeStyle;rounded=0;orthogonalLoop=1;jettySize=auto;html=1;" edge="1" parent="1" source="HxUA_yf4SmrXpNwXKXQ1-79" target="HxUA_yf4SmrXpNwXKXQ1-81">
          <mxGeometry relative="1" as="geometry" />
        </mxCell>
        <mxCell id="HxUA_yf4SmrXpNwXKXQ1-96" value="false" style="edgeLabel;html=1;align=center;verticalAlign=middle;resizable=0;points=[];" vertex="1" connectable="0" parent="HxUA_yf4SmrXpNwXKXQ1-82">
          <mxGeometry x="-0.0167" y="-2" relative="1" as="geometry">
            <mxPoint as="offset" />
          </mxGeometry>
        </mxCell>
        <mxCell id="HxUA_yf4SmrXpNwXKXQ1-79" value="find=mid" style="rhombus;whiteSpace=wrap;html=1;rounded=0;" vertex="1" parent="1">
          <mxGeometry x="840" y="1560" width="80" height="80" as="geometry" />
        </mxCell>
        <mxCell id="HxUA_yf4SmrXpNwXKXQ1-84" value="" style="edgeStyle=orthogonalEdgeStyle;rounded=0;orthogonalLoop=1;jettySize=auto;html=1;" edge="1" parent="1" source="HxUA_yf4SmrXpNwXKXQ1-81" target="HxUA_yf4SmrXpNwXKXQ1-83">
          <mxGeometry relative="1" as="geometry" />
        </mxCell>
        <mxCell id="HxUA_yf4SmrXpNwXKXQ1-97" value="false" style="edgeLabel;html=1;align=center;verticalAlign=middle;resizable=0;points=[];" vertex="1" connectable="0" parent="HxUA_yf4SmrXpNwXKXQ1-84">
          <mxGeometry x="-0.4167" relative="1" as="geometry">
            <mxPoint as="offset" />
          </mxGeometry>
        </mxCell>
        <mxCell id="HxUA_yf4SmrXpNwXKXQ1-86" value="" style="edgeStyle=orthogonalEdgeStyle;rounded=0;orthogonalLoop=1;jettySize=auto;html=1;" edge="1" parent="1" source="HxUA_yf4SmrXpNwXKXQ1-81" target="HxUA_yf4SmrXpNwXKXQ1-85">
          <mxGeometry relative="1" as="geometry" />
        </mxCell>
        <mxCell id="HxUA_yf4SmrXpNwXKXQ1-99" value="true" style="edgeLabel;html=1;align=center;verticalAlign=middle;resizable=0;points=[];" vertex="1" connectable="0" parent="HxUA_yf4SmrXpNwXKXQ1-86">
          <mxGeometry x="-0.5056" y="1" relative="1" as="geometry">
            <mxPoint as="offset" />
          </mxGeometry>
        </mxCell>
        <mxCell id="HxUA_yf4SmrXpNwXKXQ1-81" value="find&amp;gt;mid" style="rhombus;whiteSpace=wrap;html=1;rounded=0;" vertex="1" parent="1">
          <mxGeometry x="1000" y="1560" width="80" height="80" as="geometry" />
        </mxCell>
        <mxCell id="HxUA_yf4SmrXpNwXKXQ1-91" value="" style="edgeStyle=orthogonalEdgeStyle;rounded=0;orthogonalLoop=1;jettySize=auto;html=1;" edge="1" parent="1" source="HxUA_yf4SmrXpNwXKXQ1-83" target="HxUA_yf4SmrXpNwXKXQ1-90">
          <mxGeometry relative="1" as="geometry" />
        </mxCell>
        <mxCell id="HxUA_yf4SmrXpNwXKXQ1-98" value="true" style="edgeLabel;html=1;align=center;verticalAlign=middle;resizable=0;points=[];" vertex="1" connectable="0" parent="HxUA_yf4SmrXpNwXKXQ1-91">
          <mxGeometry x="-0.2133" y="-2" relative="1" as="geometry">
            <mxPoint as="offset" />
          </mxGeometry>
        </mxCell>
        <mxCell id="HxUA_yf4SmrXpNwXKXQ1-83" value="find&amp;lt;mid" style="rhombus;whiteSpace=wrap;html=1;rounded=0;" vertex="1" parent="1">
          <mxGeometry x="1160" y="1560" width="80" height="80" as="geometry" />
        </mxCell>
        <mxCell id="HxUA_yf4SmrXpNwXKXQ1-88" value="" style="edgeStyle=orthogonalEdgeStyle;rounded=0;orthogonalLoop=1;jettySize=auto;html=1;" edge="1" parent="1" source="HxUA_yf4SmrXpNwXKXQ1-85" target="HxUA_yf4SmrXpNwXKXQ1-87">
          <mxGeometry relative="1" as="geometry" />
        </mxCell>
        <mxCell id="HxUA_yf4SmrXpNwXKXQ1-85" value="left=mid+1" style="whiteSpace=wrap;html=1;rounded=0;" vertex="1" parent="1">
          <mxGeometry x="900" y="1460" width="120" height="60" as="geometry" />
        </mxCell>
        <mxCell id="HxUA_yf4SmrXpNwXKXQ1-87" value="mid=(left+right)/2" style="whiteSpace=wrap;html=1;rounded=0;" vertex="1" parent="1">
          <mxGeometry x="1080" y="1460" width="120" height="60" as="geometry" />
        </mxCell>
        <mxCell id="HxUA_yf4SmrXpNwXKXQ1-89" value="" style="endArrow=classic;html=1;rounded=0;exitX=1;exitY=0.5;exitDx=0;exitDy=0;" edge="1" parent="1" source="HxUA_yf4SmrXpNwXKXQ1-87">
          <mxGeometry width="50" height="50" relative="1" as="geometry">
            <mxPoint x="1280" y="1440" as="sourcePoint" />
            <mxPoint x="880" y="1560" as="targetPoint" />
            <Array as="points">
              <mxPoint x="1240" y="1490" />
              <mxPoint x="1240" y="1440" />
              <mxPoint x="880" y="1440" />
            </Array>
          </mxGeometry>
        </mxCell>
        <mxCell id="HxUA_yf4SmrXpNwXKXQ1-93" value="" style="edgeStyle=orthogonalEdgeStyle;rounded=0;orthogonalLoop=1;jettySize=auto;html=1;" edge="1" parent="1" source="HxUA_yf4SmrXpNwXKXQ1-90" target="HxUA_yf4SmrXpNwXKXQ1-92">
          <mxGeometry relative="1" as="geometry" />
        </mxCell>
        <mxCell id="HxUA_yf4SmrXpNwXKXQ1-90" value="right=mid-1" style="whiteSpace=wrap;html=1;rounded=0;" vertex="1" parent="1">
          <mxGeometry x="1140" y="1690" width="120" height="60" as="geometry" />
        </mxCell>
        <mxCell id="HxUA_yf4SmrXpNwXKXQ1-94" style="edgeStyle=orthogonalEdgeStyle;rounded=0;orthogonalLoop=1;jettySize=auto;html=1;entryX=0.5;entryY=1;entryDx=0;entryDy=0;" edge="1" parent="1" source="HxUA_yf4SmrXpNwXKXQ1-92" target="HxUA_yf4SmrXpNwXKXQ1-79">
          <mxGeometry relative="1" as="geometry" />
        </mxCell>
        <mxCell id="HxUA_yf4SmrXpNwXKXQ1-92" value="mid=(left+right)/2" style="whiteSpace=wrap;html=1;rounded=0;" vertex="1" parent="1">
          <mxGeometry x="960" y="1690" width="120" height="60" as="geometry" />
        </mxCell>
        <mxCell id="HxUA_yf4SmrXpNwXKXQ1-104" value="" style="edgeStyle=orthogonalEdgeStyle;rounded=0;orthogonalLoop=1;jettySize=auto;html=1;" edge="1" parent="1" source="HxUA_yf4SmrXpNwXKXQ1-102" target="HxUA_yf4SmrXpNwXKXQ1-103">
          <mxGeometry relative="1" as="geometry" />
        </mxCell>
        <mxCell id="HxUA_yf4SmrXpNwXKXQ1-102" value="find=Array[i]" style="rhombus;whiteSpace=wrap;html=1;" vertex="1" parent="1">
          <mxGeometry x="620" y="1800" width="120" height="100" as="geometry" />
        </mxCell>
        <mxCell id="HxUA_yf4SmrXpNwXKXQ1-109" style="edgeStyle=orthogonalEdgeStyle;rounded=0;orthogonalLoop=1;jettySize=auto;html=1;entryX=0.5;entryY=0;entryDx=0;entryDy=0;" edge="1" parent="1" source="HxUA_yf4SmrXpNwXKXQ1-103" target="HxUA_yf4SmrXpNwXKXQ1-107">
          <mxGeometry relative="1" as="geometry" />
        </mxCell>
        <mxCell id="HxUA_yf4SmrXpNwXKXQ1-103" value="find" style="whiteSpace=wrap;html=1;" vertex="1" parent="1">
          <mxGeometry x="910" y="1820" width="120" height="60" as="geometry" />
        </mxCell>
        <mxCell id="HxUA_yf4SmrXpNwXKXQ1-108" style="edgeStyle=orthogonalEdgeStyle;rounded=0;orthogonalLoop=1;jettySize=auto;html=1;exitX=1;exitY=0.5;exitDx=0;exitDy=0;entryX=0;entryY=0.5;entryDx=0;entryDy=0;" edge="1" parent="1" source="HxUA_yf4SmrXpNwXKXQ1-105" target="HxUA_yf4SmrXpNwXKXQ1-107">
          <mxGeometry relative="1" as="geometry" />
        </mxCell>
        <mxCell id="HxUA_yf4SmrXpNwXKXQ1-105" value="choice =10" style="rhombus;whiteSpace=wrap;html=1;rounded=0;" vertex="1" parent="1">
          <mxGeometry x="80" y="1990" width="80" height="80" as="geometry" />
        </mxCell>
        <mxCell id="HxUA_yf4SmrXpNwXKXQ1-107" value="End" style="ellipse;whiteSpace=wrap;html=1;" vertex="1" parent="1">
          <mxGeometry x="1350" y="1990" width="120" height="80" as="geometry" />
        </mxCell>
        <mxCell id="HxUA_yf4SmrXpNwXKXQ1-110" value="" style="endArrow=none;html=1;rounded=0;entryX=1;entryY=0.25;entryDx=0;entryDy=0;" edge="1" parent="1" target="HxUA_yf4SmrXpNwXKXQ1-90">
          <mxGeometry width="50" height="50" relative="1" as="geometry">
            <mxPoint x="1410" y="1850" as="sourcePoint" />
            <mxPoint x="1460" y="1800" as="targetPoint" />
            <Array as="points">
              <mxPoint x="1410" y="1705" />
            </Array>
          </mxGeometry>
        </mxCell>
        <mxCell id="HxUA_yf4SmrXpNwXKXQ1-111" value="" style="endArrow=none;html=1;rounded=0;" edge="1" parent="1">
          <mxGeometry width="50" height="50" relative="1" as="geometry">
            <mxPoint x="1410" y="1800" as="sourcePoint" />
            <mxPoint x="860" y="1620" as="targetPoint" />
            <Array as="points">
              <mxPoint x="820" y="1800" />
              <mxPoint x="820" y="1620" />
            </Array>
          </mxGeometry>
        </mxCell>
        <mxCell id="HxUA_yf4SmrXpNwXKXQ1-112" value="true" style="edgeLabel;html=1;align=center;verticalAlign=middle;resizable=0;points=[];" vertex="1" connectable="0" parent="HxUA_yf4SmrXpNwXKXQ1-111">
          <mxGeometry x="0.6608" relative="1" as="geometry">
            <mxPoint as="offset" />
          </mxGeometry>
        </mxCell>
        <mxCell id="HxUA_yf4SmrXpNwXKXQ1-113" value="" style="endArrow=none;html=1;rounded=0;entryX=1;entryY=0.5;entryDx=0;entryDy=0;" edge="1" parent="1" target="HxUA_yf4SmrXpNwXKXQ1-83">
          <mxGeometry width="50" height="50" relative="1" as="geometry">
            <mxPoint x="1410" y="1710" as="sourcePoint" />
            <mxPoint x="1460" y="1660" as="targetPoint" />
            <Array as="points">
              <mxPoint x="1410" y="1600" />
            </Array>
          </mxGeometry>
        </mxCell>
        <mxCell id="HxUA_yf4SmrXpNwXKXQ1-114" value="" style="endArrow=none;html=1;rounded=0;entryX=1;entryY=0.5;entryDx=0;entryDy=0;" edge="1" parent="1" target="HxUA_yf4SmrXpNwXKXQ1-61">
          <mxGeometry width="50" height="50" relative="1" as="geometry">
            <mxPoint x="1410" y="1600" as="sourcePoint" />
            <mxPoint x="1460" y="1550" as="targetPoint" />
            <Array as="points">
              <mxPoint x="1410" y="1360" />
            </Array>
          </mxGeometry>
        </mxCell>
        <mxCell id="HxUA_yf4SmrXpNwXKXQ1-115" value="" style="endArrow=none;html=1;rounded=0;" edge="1" parent="1">
          <mxGeometry width="50" height="50" relative="1" as="geometry">
            <mxPoint x="1410" y="1360" as="sourcePoint" />
            <mxPoint x="1110" y="1200" as="targetPoint" />
            <Array as="points">
              <mxPoint x="1410" y="1200" />
            </Array>
          </mxGeometry>
        </mxCell>
        <mxCell id="HxUA_yf4SmrXpNwXKXQ1-116" value="" style="endArrow=none;html=1;rounded=0;entryX=1;entryY=0.5;entryDx=0;entryDy=0;" edge="1" parent="1" target="HxUA_yf4SmrXpNwXKXQ1-37">
          <mxGeometry width="50" height="50" relative="1" as="geometry">
            <mxPoint x="1410" y="1200" as="sourcePoint" />
            <mxPoint x="1460" y="1150" as="targetPoint" />
            <Array as="points">
              <mxPoint x="1410" y="1040" />
            </Array>
          </mxGeometry>
        </mxCell>
        <mxCell id="HxUA_yf4SmrXpNwXKXQ1-117" value="" style="endArrow=none;html=1;rounded=0;entryX=1;entryY=0.5;entryDx=0;entryDy=0;" edge="1" parent="1" target="HxUA_yf4SmrXpNwXKXQ1-29">
          <mxGeometry width="50" height="50" relative="1" as="geometry">
            <mxPoint x="1410" y="1040" as="sourcePoint" />
            <mxPoint x="1460" y="990" as="targetPoint" />
            <Array as="points">
              <mxPoint x="1410" y="880" />
            </Array>
          </mxGeometry>
        </mxCell>
        <mxCell id="HxUA_yf4SmrXpNwXKXQ1-118" value="" style="endArrow=none;html=1;rounded=0;entryX=1;entryY=0.5;entryDx=0;entryDy=0;" edge="1" parent="1" target="HxUA_yf4SmrXpNwXKXQ1-23">
          <mxGeometry width="50" height="50" relative="1" as="geometry">
            <mxPoint x="1410" y="880" as="sourcePoint" />
            <mxPoint x="1460" y="830" as="targetPoint" />
            <Array as="points">
              <mxPoint x="1410" y="720" />
            </Array>
          </mxGeometry>
        </mxCell>
        <mxCell id="HxUA_yf4SmrXpNwXKXQ1-119" value="" style="endArrow=none;html=1;rounded=0;entryX=1;entryY=0.5;entryDx=0;entryDy=0;" edge="1" parent="1" target="HxUA_yf4SmrXpNwXKXQ1-13">
          <mxGeometry width="50" height="50" relative="1" as="geometry">
            <mxPoint x="1410" y="720" as="sourcePoint" />
            <mxPoint x="1460" y="670" as="targetPoint" />
            <Array as="points">
              <mxPoint x="1410" y="560" />
            </Array>
          </mxGeometry>
        </mxCell>
        <mxCell id="HxUA_yf4SmrXpNwXKXQ1-120" value="" style="endArrow=none;html=1;rounded=0;entryX=1;entryY=0.5;entryDx=0;entryDy=0;" edge="1" parent="1" target="HxUA_yf4SmrXpNwXKXQ1-3">
          <mxGeometry width="50" height="50" relative="1" as="geometry">
            <mxPoint x="1410" y="560" as="sourcePoint" />
            <mxPoint x="1460" y="510" as="targetPoint" />
            <Array as="points">
              <mxPoint x="1410" y="400" />
            </Array>
          </mxGeometry>
        </mxCell>
      </root>
    </mxGraphModel>
  </diagram>
</mxfile>
